<svg width="900" height="50" viewBox="0 0 900 50" fill="none" xmlns="http://www.w3.org/2000/svg">
  <defs>
    <filter id="dglow" x="-50%" y="-50%" width="200%" height="200%">
      <feGaussianBlur stdDeviation="3" result="b"/>
      <feMerge><feMergeNode in="b"/><feMergeNode in="SourceGraphic"/></feMerge>
    </filter>
    <path id="dEcg" d="M0 25 h95 l8 -7 l8 7 h28 l4 6 l7 -34 l7 42 l4 -14 h30 l10 -9 l10 9 h89
      h95 l8 -7 l8 7 h28 l4 6 l7 -34 l7 42 l4 -14 h30 l10 -9 l10 9 h89
      h95 l8 -7 l8 7 h28 l4 6 l7 -34 l7 42 l4 -14 h30 l10 -9 l10 9 h89" />
    <linearGradient id="dfade" x1="0" y1="0" x2="900" y2="0" gradientUnits="userSpaceOnUse">
      <stop offset="0" stop-color="#00e5a0" stop-opacity="0"/>
      <stop offset="0.12" stop-color="#00e5a0" stop-opacity="1"/>
      <stop offset="0.88" stop-color="#00e5a0" stop-opacity="1"/>
      <stop offset="1" stop-color="#00e5a0" stop-opacity="0"/>
    </linearGradient>
  </defs>
  <use href="#dEcg" stroke="#16394f" stroke-width="1.6" fill="none"/>
  <use href="#dEcg" stroke="url(#dfade)" stroke-width="2.2" fill="none" filter="url(#dglow)" stroke-linecap="round" stroke-dasharray="130 1070">
    <animate attributeName="stroke-dashoffset" values="1200;0" dur="3.6s" repeatCount="indefinite"/>
  </use>
  <circle r="3.5" fill="#b6ffe6" filter="url(#dglow)">
    <animateMotion dur="3.6s" repeatCount="indefinite"><mpath href="#dEcg"/></animateMotion>
  </circle>
</svg>
