<svg width="900" height="270" viewBox="0 0 900 270" fill="none" xmlns="http://www.w3.org/2000/svg">
  <defs>
    <pattern id="fgrid" width="26" height="26" patternUnits="userSpaceOnUse">
      <path d="M26 0H0V26" stroke="#0b1f30" stroke-width="1" fill="none"/>
    </pattern>
    <filter id="fglow" x="-50%" y="-50%" width="200%" height="200%">
      <feGaussianBlur stdDeviation="2.5" result="b"/>
      <feMerge><feMergeNode in="b"/><feMergeNode in="SourceGraphic"/></feMerge>
    </filter>
    <linearGradient id="ftitle" x1="0" y1="0" x2="1" y2="0">
      <stop stop-color="#00e5a0"/><stop offset="1" stop-color="#00b4d8"/>
    </linearGradient>
  </defs>
  <style>
    .fa { animation: rise 0.9s ease-out both; }
    .l0 { animation-delay:0.3s; } .l1 { animation-delay:0.7s; }
    .l2 { animation-delay:1.1s; } .l3 { animation-delay:1.5s; }
    @keyframes rise { from { opacity:0; } to { opacity:1; } }
    .star { animation: tw 2.2s ease-in-out infinite; transform-origin: 90px 200px; }
    @keyframes tw { 0%,100% { opacity:0.35; } 50% { opacity:1; } }
  </style>
  <rect width="900" height="270" rx="18" fill="#040b14"/>
  <rect width="900" height="270" rx="18" fill="url(#fgrid)" opacity="0.5"/>
  <rect x="1" y="1" width="898" height="268" rx="17" stroke="#123049" stroke-width="2"/>
  <rect x="848" y="36" width="5" height="28" rx="2.5" fill="#00e5a0"/>
  <text x="64" y="58" font-family="'Courier New',monospace" font-size="14" fill="#3d5a73">// about.fa</text>
  <g class="ft" fill="url(#ftitle)" transform="translate(738.7,58)">
    <path transform="translate(0.0,0.0) scale(0.013184,-0.013184)" d="M534 656 708 829 882 656 708 482ZM1137 140Q1137 239 1106.0 339.5Q1075 440 1032 532L1281 618L1366 354Q1382 302 1411.5 281.0Q1441 260 1508 260H1548V0H1512Q1468 0 1435.5 8.0Q1403 16 1377 30Q1361 -149 1271.0 -271.5Q1181 -394 1038.0 -457.0Q895 -520 721 -520Q412 -520 235.0 -360.5Q58 -201 58 96Q58 216 89.0 338.5Q120 461 166 578L394 484Q359 390 334.5 290.5Q310 191 310 101Q310 -86 405.5 -174.0Q501 -262 718 -262Q927 -262 1031.5 -166.0Q1136 -70 1137 140Z"/>
    <path transform="translate(20.1,0.0) scale(0.013184,-0.013184)" d="M305 128Q244 67 173.5 33.5Q103 0 23 0H-19V260H18Q86 260 132.5 319.0Q179 378 219 461Q293 611 384.5 693.0Q476 775 597 775Q717 775 805.5 715.5Q894 656 942.0 558.5Q990 461 990 347Q990 179 902.5 78.5Q815 -22 654 -22Q556 -22 471.5 17.0Q387 56 305 128ZM439 347Q493 289 549.5 260.5Q606 232 649 232Q746 232 746 332Q746 420 705.0 467.5Q664 515 601 515Q558 515 516.5 468.0Q475 421 439 347Z"/>
    <path transform="translate(41.1,0.0) scale(0.013184,-0.013184)" d="M360 1018Q506 907 620.0 799.5Q734 692 799.0 584.0Q864 476 864 364Q864 254 812.0 173.0Q760 92 668.5 48.0Q577 4 461 4Q284 4 171.0 94.0Q58 184 58 364Q58 483 112.5 575.5Q167 668 267 783L218 826ZM448 618Q371 545 338.0 481.5Q305 418 305 369Q305 319 336.0 289.5Q367 260 460 260Q556 260 586.5 286.0Q617 312 617 370Q617 412 577.5 477.0Q538 542 448 618Z"/>
    <path transform="translate(51.1,0.0) scale(0.013184,-0.013184)" d="M552 617Q599 509 625.5 389.5Q652 270 652 153Q652 -11 586.5 -153.0Q521 -295 386.0 -398.0Q251 -501 41 -548L-68 -327Q175 -267 290.5 -150.5Q406 -34 406 137Q406 227 380.5 332.0Q355 437 315 532Z"/>
    <path transform="translate(60.5,0.0) scale(0.013184,-0.013184)" d="M547 0H522Q325 0 216.5 107.5Q108 215 108 445V1386H357V444Q357 331 396.5 295.5Q436 260 522 260H547Z"/>
    <path transform="translate(67.4,0.0) scale(0.013184,-0.013184)" d="M534 456Q534 243 422.5 121.5Q311 0 99 0H-21V260H99Q202 260 242.5 300.5Q283 341 283 453Q283 517 269.0 606.5Q255 696 238 767L477 825Q503 740 518.5 640.5Q534 541 534 456ZM31 -303 205 -130 379 -303 205 -477Z"/>
    <path transform="translate(75.2,0.0) scale(0.013184,-0.013184)" d="M552 617Q599 509 625.5 389.5Q652 270 652 153Q652 -11 586.5 -153.0Q521 -295 386.0 -398.0Q251 -501 41 -548L-68 -327Q175 -267 290.5 -150.5Q406 -34 406 137Q406 227 380.5 332.0Q355 437 315 532Z"/>
    <path transform="translate(84.6,0.0) scale(0.013184,-0.013184)" d="M58 296Q121 283 193.0 272.0Q265 261 317 261Q504 261 576.5 301.5Q649 342 649 404Q649 483 533.5 600.0Q418 717 219 843L361 1057Q611 908 758.0 747.0Q905 586 905 407Q905 202 754.5 102.0Q604 2 330 2Q255 2 187.5 11.0Q120 20 58 33Z"/>
  </g>
  <g class="fa l0" fill="#c9e4f5" transform="translate(354.9,118)">
    <path transform="translate(0.0,0.0) scale(0.009766,-0.009766)" d="M183 134Q183 189 222.0 228.5Q261 268 316 268Q371 268 410.0 228.5Q449 189 449 134Q449 79 410.0 40.0Q371 1 316 1Q261 1 222.0 39.0Q183 77 183 134Z"/>
    <path transform="translate(6.2,0.0) scale(0.009766,-0.009766)" d="M98 209Q214 181 307 181Q646 181 646 350Q646 375 634.0 416.5Q622 458 610 487L449 892L604 963L812 432Q871 283 921.5 231.5Q972 180 1033 180H1075V0H1033Q941 0 871.5 34.0Q802 68 747 162Q680 82 581.5 41.5Q483 1 322 1Q254 1 200.0 8.0Q146 15 98 26Z"/>
    <path transform="translate(16.5,0.0) scale(0.009766,-0.009766)" d="M707 0H683Q582 0 516.0 36.5Q450 73 412 143Q361 73 281.0 36.5Q201 0 101 0H-20V180H101Q221 180 272.0 232.5Q323 285 323 397Q323 444 320.0 493.0Q317 542 315 588L479 608L495 362Q507 180 685 180H707ZM181 955 327 1100 473 955 327 809Z"/>
    <path transform="translate(23.2,0.0) scale(0.009766,-0.009766)" d="M1153 180Q1292 180 1292 402Q1292 507 1248 666L1412 707Q1436 631 1450.0 559.5Q1464 488 1464 417Q1464 303 1434.0 208.5Q1404 114 1336.0 57.5Q1268 1 1154 0Q982 0 911 143Q807 0 636 0Q437 0 372 143Q289 0 49 0H-20V180H51Q173 180 233.0 225.5Q293 271 293 389Q293 415 290.5 459.0Q288 503 283 567L448 587L464 361Q470 282 513.0 231.0Q556 180 638 180Q737 180 780.0 234.0Q823 288 823 389Q823 413 820.5 457.5Q818 502 813 567L978 587L994 361Q999 285 1037.0 232.5Q1075 180 1153 180Z"/>
    <path transform="translate(36.9,0.0) scale(0.009766,-0.009766)" d="M530 527Q574 426 593.0 320.5Q612 215 612 113Q612 -33 555.5 -166.5Q499 -300 378.0 -399.0Q257 -498 63 -542L-10 -394Q233 -335 339.5 -202.0Q446 -69 446 97Q446 184 427.5 278.0Q409 372 368 469Z"/>
    <path transform="translate(43.8,0.0) scale(0.009766,-0.009766)" d="M324 365Q270 215 270 60Q270 -157 382.5 -249.5Q495 -342 719 -342Q808 -342 894.5 -324.5Q981 -307 1051.0 -275.0Q1121 -243 1162.5 -200.5Q1204 -158 1204 -107Q1204 -63 1162.5 -31.5Q1121 0 1040 0H917Q888 0 873.0 18.0Q858 36 852 62L830 154Q824 180 853 180H1457V0H1338Q1358 -41 1362.0 -67.0Q1366 -93 1366 -114Q1366 -230 1285.0 -322.0Q1204 -414 1059.0 -466.5Q914 -519 720 -519Q423 -519 261.0 -374.0Q99 -229 99 61Q99 142 117.0 245.5Q135 349 170 428Z"/>
    <path transform="translate(57.8,0.0) scale(0.009766,-0.009766)" d="M303 144Q177 0 23 0H-20V180H18Q79 180 123.0 215.0Q167 250 199.0 303.0Q231 356 256 411Q322 557 406.5 626.0Q491 695 597 695Q704 695 783.5 642.0Q863 589 906.5 501.0Q950 413 950 307Q950 151 873.0 64.5Q796 -22 652 -22Q555 -22 472.0 20.0Q389 62 303 144ZM391 300Q457 224 520.0 188.5Q583 153 644 153Q783 153 783 292Q783 390 734.5 452.5Q686 515 601 515Q531 515 479.5 448.0Q428 381 391 300Z"/>
    <path transform="translate(73.3,0.0) scale(0.009766,-0.009766)" d="M780 695Q931 695 1013.5 604.0Q1096 513 1125 370Q1166 180 1288 180H1316V0H1288Q1226 0 1173.5 24.5Q1121 49 1084 104Q1045 37 988.0 7.0Q931 -23 843 -23Q771 -23 677 19Q643 34 594.0 62.5Q545 91 497.0 114.5Q449 138 419 138Q341 138 307.5 33.5Q274 -71 274 -295Q274 -393 277.5 -484.0Q281 -575 288 -655H112Q107 -567 104.0 -484.5Q101 -402 101 -323Q101 -149 122.5 -6.5Q144 136 209.0 226.0Q274 316 403 331Q477 517 566.5 605.5Q656 694 780 695ZM842 155Q964 157 964 295Q964 387 915.0 451.5Q866 516 780 516Q708 516 655.5 445.0Q603 374 564 281Q654 219 722.5 187.0Q791 155 842 155Z"/>
    <path transform="translate(86.0,0.0) scale(0.009766,-0.009766)" d="M585 951Q929 784 1100.0 638.0Q1271 492 1271 353Q1271 183 1163.0 96.5Q1055 10 879 10Q813 10 739.0 20.5Q665 31 598.0 46.5Q531 62 485 77Q403 46 291.0 23.0Q179 0 75 0H-20V180H63Q129 180 177.0 181.5Q225 183 280 190Q216 244 184.5 310.5Q153 377 153 466Q153 566 200.0 638.0Q247 710 325.0 748.5Q403 787 495 787Q541 787 580 777L509 813ZM728 699Q783 651 804.0 602.0Q825 553 825 483Q825 392 789.5 318.0Q754 244 689 186Q730 181 777.5 178.0Q825 175 862 175Q1096 175 1096 350Q1096 492 728 699ZM503 240Q588 274 631.0 335.0Q674 396 675 463Q675 546 628.0 589.0Q581 632 504 632Q423 632 373.0 587.5Q323 543 323 468Q323 398 368.5 336.0Q414 274 503 240Z"/>
    <path transform="translate(104.6,0.0) scale(0.009766,-0.009766)" d="M98 412Q98 559 223.0 672.0Q348 785 605 864L598 909L757 942L839 353Q850 271 897.5 225.5Q945 180 1027 180H1058V0H1023Q884 0 805.5 61.5Q727 123 701 237Q579 132 431 132Q340 132 264.0 161.5Q188 191 143.0 253.0Q98 315 98 412ZM631 703Q454 638 363.0 570.5Q272 503 272 424Q272 300 425 300Q481 300 535.0 322.0Q589 344 625.0 384.5Q661 425 661 482Q661 512 657 539Z"/>
    <path transform="translate(114.8,0.0) scale(0.009766,-0.009766)" d="M494 416Q494 215 395.0 107.5Q296 0 99 0H-20V180H99Q215 180 269.0 233.5Q323 287 323 413Q323 472 313.0 549.5Q303 627 286 698L450 738Q473 660 483.5 574.5Q494 489 494 416ZM59 -303 205 -158 351 -303 205 -449Z"/>
    <path transform="translate(125.8,0.0) scale(0.009766,-0.009766)" d="M610 52Q601 -79 540.5 -199.5Q480 -320 362.5 -410.5Q245 -501 63 -542L-10 -394Q235 -334 340.5 -200.5Q446 -67 446 102Q446 188 427.5 280.5Q409 373 368 469L530 527L592 325Q618 247 659.5 213.5Q701 180 771 180H810V0H782Q720 0 676.5 16.0Q633 32 610 52Z"/>
    <path transform="translate(133.6,0.0) scale(0.009766,-0.009766)" d="M707 0H683Q582 0 516.0 36.5Q450 73 412 143Q361 73 281.0 36.5Q201 0 101 0H-20V180H101Q221 180 272.0 232.5Q323 285 323 397Q323 444 320.0 493.0Q317 542 315 588L479 608L495 362Q507 180 685 180H707ZM181 955 327 1100 473 955 327 809Z"/>
    <path transform="translate(140.3,0.0) scale(0.009766,-0.009766)" d="M585 951Q929 784 1100.0 638.0Q1271 492 1271 353Q1271 183 1163.0 96.5Q1055 10 879 10Q813 10 739.0 20.5Q665 31 598.0 46.5Q531 62 485 77Q403 46 291.0 23.0Q179 0 75 0H-20V180H63Q129 180 177.0 181.5Q225 183 280 190Q216 244 184.5 310.5Q153 377 153 466Q153 566 200.0 638.0Q247 710 325.0 748.5Q403 787 495 787Q541 787 580 777L509 813ZM728 699Q783 651 804.0 602.0Q825 553 825 483Q825 392 789.5 318.0Q754 244 689 186Q730 181 777.5 178.0Q825 175 862 175Q1096 175 1096 350Q1096 492 728 699ZM503 240Q588 274 631.0 335.0Q674 396 675 463Q675 546 628.0 589.0Q581 632 504 632Q423 632 373.0 587.5Q323 543 323 468Q323 398 368.5 336.0Q414 274 503 240Z"/>
    <path transform="translate(158.9,0.0) scale(0.009766,-0.009766)" d="M612 25Q578 14 529.5 7.0Q481 0 448 0Q98 0 98 296Q98 395 133.5 490.5Q169 586 242.5 649.0Q316 712 428 712Q550 712 628.5 633.5Q707 555 744.5 430.0Q782 305 782 166Q782 -113 628.5 -296.0Q475 -479 168 -538L108 -384Q326 -343 457.0 -231.5Q588 -120 612 25ZM616 199Q595 535 420 535Q359 535 324.5 494.0Q290 453 276.5 398.5Q263 344 263 301Q263 232 309.5 204.0Q356 176 453 176Q492 176 534.0 181.5Q576 187 616 199Z"/>
    <path transform="translate(172.8,0.0) scale(0.009766,-0.009766)" d="M361 475Q269 250 269 72Q269 -132 378.0 -227.0Q487 -322 714 -323Q802 -323 890.5 -306.5Q979 -290 1053.0 -256.5Q1127 -223 1172.0 -172.0Q1217 -121 1217 -52Q1217 -15 1201.0 0.5Q1185 16 1138 16H974Q728 16 728 263Q728 384 783.0 489.5Q838 595 939.5 661.0Q1041 727 1182 727Q1211 727 1264.5 722.5Q1318 718 1372 695L1340 530Q1297 544 1254.0 547.5Q1211 551 1182 551Q1100 551 1045.0 521.5Q990 492 957.5 448.0Q925 404 911.0 357.5Q897 311 897 276Q897 232 913.5 212.0Q930 192 984 192H1164Q1283 191 1330.5 123.0Q1378 55 1378 -48Q1378 -186 1291.5 -287.5Q1205 -389 1056.0 -444.0Q907 -499 719 -499Q424 -499 261.0 -354.5Q98 -210 98 79Q98 186 125.0 298.5Q152 411 206 538Z"/>
    <path transform="translate(187.2,0.0) scale(0.009766,-0.009766)" d="M257 1056 389 1188 522 1056 389 923ZM429 794 561 926 694 794 561 661ZM89 794 221 926 354 794 221 661ZM530 527Q574 426 593.0 320.5Q612 215 612 113Q612 -33 555.5 -166.5Q499 -300 378.0 -399.0Q257 -498 63 -542L-10 -394Q233 -335 339.5 -202.0Q446 -69 446 97Q446 184 427.5 278.0Q409 372 368 469Z"/>
    <path transform="translate(194.3,0.0) scale(0.009766,-0.009766)" d="M427 712Q584 712 672.5 581.5Q761 451 779 180H896V0H767Q729 -205 580.0 -346.5Q431 -488 168 -538L108 -384Q324 -343 448.0 -240.0Q572 -137 609 0H462Q98 0 98 296Q98 395 133.5 490.5Q169 586 242.0 649.0Q315 712 427 712ZM616 180Q605 363 556.0 449.0Q507 535 418 535Q358 535 324.0 494.0Q290 453 276.5 398.5Q263 344 263 301Q263 236 307.0 208.0Q351 180 452 180Z"/>
    <path transform="translate(202.9,0.0) scale(0.009766,-0.009766)" d="M-20 0V180H61Q151 180 196.0 205.0Q241 230 256.0 279.5Q271 329 271 403V1366H440V404Q440 205 353.5 102.5Q267 0 60 0Z"/>
    <path transform="translate(208.6,0.0) scale(0.009766,-0.009766)" d="M427 712Q584 712 672.5 581.5Q761 451 779 180H896V0H767Q729 -205 580.0 -346.5Q431 -488 168 -538L108 -384Q324 -343 448.0 -240.0Q572 -137 609 0H462Q98 0 98 296Q98 395 133.5 490.5Q169 586 242.0 649.0Q315 712 427 712ZM616 180Q605 363 556.0 449.0Q507 535 418 535Q358 535 324.0 494.0Q290 453 276.5 398.5Q263 344 263 301Q263 236 307.0 208.0Q351 180 452 180Z"/>
    <path transform="translate(217.2,0.0) scale(0.009766,-0.009766)" d="M707 0H683Q582 0 516.0 36.5Q450 73 412 143Q361 73 281.0 36.5Q201 0 101 0H-20V180H101Q221 180 272.0 232.5Q323 285 323 397Q323 444 320.0 493.0Q317 542 315 588L479 608L495 362Q507 180 685 180H707ZM181 955 327 1100 473 955 327 809Z"/>
    <path transform="translate(223.9,0.0) scale(0.009766,-0.009766)" d="M215 984Q310 908 410.5 826.0Q511 744 596.0 648.0Q681 552 728 432Q777 308 847.5 244.0Q918 180 1018 180H1047V0H1018Q908 0 821.5 45.5Q735 91 669 179Q611 90 494.5 45.0Q378 0 166 0H-20V180H165Q371 180 461.0 221.5Q551 263 551 359Q551 413 510.0 472.5Q469 532 402.0 596.5Q335 661 254.0 728.5Q173 796 93 865Q42 908 42 983Q42 1027 66.5 1069.5Q91 1112 146 1133L890 1410V1234Z"/>
    <path transform="translate(233.9,0.0) scale(0.009766,-0.009766)" d="M530 738Q553 660 563.5 574.5Q574 489 574 416Q574 195 465.5 97.5Q357 0 129 0H-20V180H129Q228 180 288.0 198.0Q348 216 375.5 266.0Q403 316 403 413Q403 472 393.0 549.5Q383 627 366 698ZM335 1040 475 1180 616 1040 475 898ZM3 1040 143 1180 284 1040 143 898Z"/>
    <path transform="translate(245.8,0.0) scale(0.009766,-0.009766)" d="M503 573Q428 505 384.5 438.5Q341 372 341 277Q417 277 446.5 242.5Q476 208 476 143Q476 78 441.5 39.5Q407 1 341 1Q257 1 220.0 48.5Q183 96 183 175Q183 320 251.5 433.5Q320 547 429 632Z"/>
    <path transform="translate(252.3,0.0) scale(0.009766,-0.009766)" d="M324 365Q270 215 270 60Q270 -157 382.5 -249.5Q495 -342 719 -342Q808 -342 894.5 -324.5Q981 -307 1051.0 -275.0Q1121 -243 1162.5 -200.5Q1204 -158 1204 -107Q1204 -63 1162.5 -31.5Q1121 0 1040 0H917Q888 0 873.0 18.0Q858 36 852 62L830 154Q824 180 853 180H1457V0H1338Q1358 -41 1362.0 -67.0Q1366 -93 1366 -114Q1366 -230 1285.0 -322.0Q1204 -414 1059.0 -466.5Q914 -519 720 -519Q423 -519 261.0 -374.0Q99 -229 99 61Q99 142 117.0 245.5Q135 349 170 428Z"/>
    <path transform="translate(266.3,0.0) scale(0.009766,-0.009766)" d="M215 984Q310 908 410.5 826.0Q511 744 596.0 648.0Q681 552 728 432Q777 308 847.5 244.0Q918 180 1018 180H1047V0H1018Q908 0 821.5 45.5Q735 91 669 179Q611 90 494.5 45.0Q378 0 166 0H-20V180H165Q371 180 461.0 221.5Q551 263 551 359Q551 413 510.0 472.5Q469 532 402.0 596.5Q335 661 254.0 728.5Q173 796 93 865Q42 908 42 983Q42 1027 66.5 1069.5Q91 1112 146 1133L890 1410V1234Z"/>
    <path transform="translate(276.3,0.0) scale(0.009766,-0.009766)" d="M718 1184 850 1316 983 1184 850 1051ZM890 922 1022 1054 1155 922 1022 789ZM550 922 682 1054 815 922 682 789ZM1153 180Q1292 180 1292 402Q1292 507 1248 666L1412 707Q1436 631 1450.0 559.5Q1464 488 1464 417Q1464 303 1434.0 208.5Q1404 114 1336.0 57.5Q1268 1 1154 0Q982 0 911 143Q807 0 636 0Q437 0 372 143Q289 0 49 0H-20V180H51Q173 180 233.0 225.5Q293 271 293 389Q293 415 290.5 459.0Q288 503 283 567L448 587L464 361Q470 282 513.0 231.0Q556 180 638 180Q737 180 780.0 234.0Q823 288 823 389Q823 413 820.5 457.5Q818 502 813 567L978 587L994 361Q999 285 1037.0 232.5Q1075 180 1153 180Z"/>
    <path transform="translate(290.0,0.0) scale(0.009766,-0.009766)" d="M264 872 410 1017 556 872 410 726ZM610 52Q601 -79 540.5 -199.5Q480 -320 362.5 -410.5Q245 -501 63 -542L-10 -394Q235 -334 340.5 -200.5Q446 -67 446 102Q446 188 427.5 280.5Q409 373 368 469L530 527L592 325Q618 247 659.5 213.5Q701 180 771 180H810V0H782Q720 0 676.5 16.0Q633 32 610 52Z"/>
    <path transform="translate(297.8,0.0) scale(0.009766,-0.009766)" d="M276 -268 408 -135 541 -268 408 -400ZM-64 -268 68 -135 201 -268 68 -400ZM104 -530 236 -397 369 -530 236 -662ZM530 738Q553 660 563.5 574.5Q574 489 574 416Q574 195 465.5 97.5Q357 0 129 0H-20V180H129Q228 180 288.0 198.0Q348 216 375.5 266.0Q403 316 403 413Q403 472 393.0 549.5Q383 627 366 698Z"/>
    <path transform="translate(309.6,0.0) scale(0.009766,-0.009766)" d="M98 412Q98 559 223.0 672.0Q348 785 605 864L598 909L757 942L839 353Q850 271 897.5 225.5Q945 180 1027 180H1058V0H1023Q884 0 805.5 61.5Q727 123 701 237Q579 132 431 132Q340 132 264.0 161.5Q188 191 143.0 253.0Q98 315 98 412ZM631 703Q454 638 363.0 570.5Q272 503 272 424Q272 300 425 300Q481 300 535.0 322.0Q589 344 625.0 384.5Q661 425 661 482Q661 512 657 539Z"/>
    <path transform="translate(319.7,0.0) scale(0.009766,-0.009766)" d="M727 356Q726 177 593.5 88.5Q461 0 166 0H-20V180H165Q371 180 461.0 221.5Q551 263 551 359Q551 413 510.0 472.5Q469 532 402.0 596.5Q335 661 254.0 728.5Q173 796 93 865Q42 908 42 983Q42 1027 66.5 1069.5Q91 1112 146 1133L890 1410V1234L215 984Q291 923 379.5 852.5Q468 782 547.0 703.0Q626 624 676.5 537.0Q727 450 727 356Z"/>
    <path transform="translate(334.3,0.0) scale(0.009766,-0.009766)" d="M780 695Q931 695 1013.5 604.0Q1096 513 1125 370Q1166 180 1288 180H1316V0H1288Q1226 0 1173.5 24.5Q1121 49 1084 104Q1045 37 988.0 7.0Q931 -23 843 -23Q771 -23 677 19Q643 34 594.0 62.5Q545 91 497.0 114.5Q449 138 419 138Q341 138 307.5 33.5Q274 -71 274 -295Q274 -393 277.5 -484.0Q281 -575 288 -655H112Q107 -567 104.0 -484.5Q101 -402 101 -323Q101 -149 122.5 -6.5Q144 136 209.0 226.0Q274 316 403 331Q477 517 566.5 605.5Q656 694 780 695ZM842 155Q964 157 964 295Q964 387 915.0 451.5Q866 516 780 516Q708 516 655.5 445.0Q603 374 564 281Q654 219 722.5 187.0Q791 155 842 155Z"/>
    <path transform="translate(346.9,0.0) scale(0.009766,-0.009766)" d="M707 0H683Q582 0 516.0 36.5Q450 73 412 143Q361 73 281.0 36.5Q201 0 101 0H-20V180H101Q221 180 272.0 232.5Q323 285 323 397Q323 444 320.0 493.0Q317 542 315 588L479 608L495 362Q507 180 685 180H707ZM181 955 327 1100 473 955 327 809Z"/>
    <path transform="translate(353.6,0.0) scale(0.009766,-0.009766)" d="M727 356Q726 177 593.5 88.5Q461 0 166 0H-20V180H165Q371 180 461.0 221.5Q551 263 551 359Q551 413 510.0 472.5Q469 532 402.0 596.5Q335 661 254.0 728.5Q173 796 93 865Q42 908 42 983Q42 1027 66.5 1069.5Q91 1112 146 1133L890 1410V1234L215 984Q291 923 379.5 852.5Q468 782 547.0 703.0Q626 624 676.5 537.0Q727 450 727 356Z"/>
    <path transform="translate(362.2,0.0) scale(0.009766,-0.009766)" d="M324 365Q270 215 270 60Q270 -157 382.5 -249.5Q495 -342 719 -342Q808 -342 894.5 -324.5Q981 -307 1051.0 -275.0Q1121 -243 1162.5 -200.5Q1204 -158 1204 -107Q1204 -63 1162.5 -31.5Q1121 0 1040 0H917Q888 0 873.0 18.0Q858 36 852 62L830 154Q824 180 853 180H1457V0H1338Q1358 -41 1362.0 -67.0Q1366 -93 1366 -114Q1366 -230 1285.0 -322.0Q1204 -414 1059.0 -466.5Q914 -519 720 -519Q423 -519 261.0 -374.0Q99 -229 99 61Q99 142 117.0 245.5Q135 349 170 428Z"/>
    <path transform="translate(376.3,0.0) scale(0.009766,-0.009766)" d="M303 144Q177 0 23 0H-20V180H18Q79 180 123.0 215.0Q167 250 199.0 303.0Q231 356 256 411Q322 557 406.5 626.0Q491 695 597 695Q704 695 783.5 642.0Q863 589 906.5 501.0Q950 413 950 307Q950 151 873.0 64.5Q796 -22 652 -22Q555 -22 472.0 20.0Q389 62 303 144ZM391 300Q457 224 520.0 188.5Q583 153 644 153Q783 153 783 292Q783 390 734.5 452.5Q686 515 601 515Q531 515 479.5 448.0Q428 381 391 300Z"/>
    <path transform="translate(391.8,0.0) scale(0.009766,-0.009766)" d="M324 365Q270 215 270 60Q270 -157 382.5 -249.5Q495 -342 719 -342Q808 -342 894.5 -324.5Q981 -307 1051.0 -275.0Q1121 -243 1162.5 -200.5Q1204 -158 1204 -107Q1204 -63 1162.5 -31.5Q1121 0 1040 0H917Q888 0 873.0 18.0Q858 36 852 62L830 154Q824 180 853 180H1457V0H1338Q1358 -41 1362.0 -67.0Q1366 -93 1366 -114Q1366 -230 1285.0 -322.0Q1204 -414 1059.0 -466.5Q914 -519 720 -519Q423 -519 261.0 -374.0Q99 -229 99 61Q99 142 117.0 245.5Q135 349 170 428Z"/>
    <path transform="translate(405.8,0.0) scale(0.009766,-0.009766)" d="M727 356Q726 177 593.5 88.5Q461 0 166 0H-20V180H165Q371 180 461.0 221.5Q551 263 551 359Q551 413 510.0 472.5Q469 532 402.0 596.5Q335 661 254.0 728.5Q173 796 93 865Q42 908 42 983Q42 1027 66.5 1069.5Q91 1112 146 1133L890 1410V1234L215 984Q291 923 379.5 852.5Q468 782 547.0 703.0Q626 624 676.5 537.0Q727 450 727 356ZM881.4553833007812 1537.1834106445312 103.56005859375 1248.2814331054688V1356.3521728515625L881.4553833007812 1645.254150390625Z"/>
    <path transform="translate(414.4,0.0) scale(0.009766,-0.009766)" d="M98 209Q214 181 307 181Q646 181 646 350Q646 375 634.0 416.5Q622 458 610 487L449 892L604 963L812 432Q871 283 921.5 231.5Q972 180 1033 180H1075V0H1033Q941 0 871.5 34.0Q802 68 747 162Q680 82 581.5 41.5Q483 1 322 1Q254 1 200.0 8.0Q146 15 98 26Z"/>
    <path transform="translate(424.7,0.0) scale(0.009766,-0.009766)" d="M494 416Q494 215 395.0 107.5Q296 0 99 0H-20V180H99Q215 180 269.0 233.5Q323 287 323 413Q323 472 313.0 549.5Q303 627 286 698L450 738Q473 660 483.5 574.5Q494 489 494 416ZM126 1040 272 1185 418 1040 272 894Z"/>
    <path transform="translate(428.9,0.0) scale(0.009766,-0.009766)" d="M264 872 410 1017 556 872 410 726ZM530 527Q574 426 593.0 320.5Q612 215 612 113Q612 -33 555.5 -166.5Q499 -300 378.0 -399.0Q257 -498 63 -542L-10 -394Q233 -335 339.5 -202.0Q446 -69 446 97Q446 184 427.5 278.0Q409 372 368 469Z"/>
    <path transform="translate(441.1,0.0) scale(0.009766,-0.009766)" d="M324 365Q270 215 270 60Q270 -157 382.5 -249.5Q495 -342 719 -342Q808 -342 894.5 -324.5Q981 -307 1051.0 -275.0Q1121 -243 1162.5 -200.5Q1204 -158 1204 -107Q1204 -63 1162.5 -31.5Q1121 0 1040 0H917Q888 0 873.0 18.0Q858 36 852 62L830 154Q824 180 853 180H1457V0H1338Q1358 -41 1362.0 -67.0Q1366 -93 1366 -114Q1366 -230 1285.0 -322.0Q1204 -414 1059.0 -466.5Q914 -519 720 -519Q423 -519 261.0 -374.0Q99 -229 99 61Q99 142 117.0 245.5Q135 349 170 428ZM1434.104736328125 0.0V180.0H1579.0975341796875V0.0Z"/>
    <path transform="translate(456.4,0.0) scale(0.009766,-0.009766)" d="M530 738Q553 660 563.5 574.5Q574 489 574 416Q574 195 465.5 97.5Q357 0 129 0H-20V180H129Q228 180 288.0 198.0Q348 216 375.5 266.0Q403 316 403 413Q403 472 393.0 549.5Q383 627 366 698ZM267 -303 407 -163 548 -303 407 -445ZM-65 -303 75 -163 216 -303 75 -445Z"/>
    <path transform="translate(462.9,0.0) scale(0.009766,-0.009766)" d="M547 0H522Q339 0 243.5 94.0Q148 188 148 405V1366H317V404Q317 277 370.0 228.5Q423 180 522 180H547Z"/>
    <path transform="translate(468.1,0.0) scale(0.009766,-0.009766)" d="M489 -303 635 -158 781 -303 635 -449ZM-20 0V180H143Q273 180 385.0 208.5Q497 237 613.0 290.0Q729 343 870 416L948 457Q926 464 892.0 479.5Q858 495 763 533Q662 574 596.0 598.0Q530 622 495 622Q438 622 384.5 589.0Q331 556 294 508L267 473L116 548L131 574Q194 677 288.5 738.5Q383 800 496 800Q559 800 635.0 773.5Q711 747 799 704Q954 628 1057.0 593.5Q1160 559 1246 554L1244 384Q1183 377 1098.5 341.0Q1014 305 861 224Q739 160 625.0 109.0Q511 58 393.0 29.0Q275 0 140 0Z"/>
  </g>
  <g class="fa l1" fill="#a8c7dd" transform="translate(497.1,156)">
    <path transform="translate(0.0,0.0) scale(0.009766,-0.009766)" d="M183 134Q183 189 222.0 228.5Q261 268 316 268Q371 268 410.0 228.5Q449 189 449 134Q449 79 410.0 40.0Q371 1 316 1Q261 1 222.0 39.0Q183 77 183 134Z"/>
    <path transform="translate(6.2,0.0) scale(0.009766,-0.009766)" d="M369 922Q587 752 705.5 609.5Q824 467 824 324Q824 178 724.0 91.0Q624 4 461 4Q295 4 196.5 86.0Q98 168 98 324Q98 435 154.5 528.0Q211 621 323 746L272 792ZM447 625Q353 542 309.0 468.0Q265 394 265 329Q265 260 311.0 220.0Q357 180 460 180Q564 180 610.5 216.5Q657 253 657 330Q657 391 605.5 465.0Q554 539 447 625Z"/>
    <path transform="translate(15.2,0.0) scale(0.009766,-0.009766)" d="M98 209Q214 181 307 181Q646 181 646 350Q646 375 634.0 416.5Q622 458 610 487L449 892L604 963L812 432Q871 283 921.5 231.5Q972 180 1033 180H1075V0H1033Q941 0 871.5 34.0Q802 68 747 162Q680 82 581.5 41.5Q483 1 322 1Q254 1 200.0 8.0Q146 15 98 26Z"/>
    <path transform="translate(25.5,0.0) scale(0.009766,-0.009766)" d="M530 738Q553 660 563.5 574.5Q574 489 574 416Q574 195 465.5 97.5Q357 0 129 0H-20V180H129Q228 180 288.0 198.0Q348 216 375.5 266.0Q403 316 403 413Q403 472 393.0 549.5Q383 627 366 698ZM267 -303 407 -163 548 -303 407 -445ZM-65 -303 75 -163 216 -303 75 -445Z"/>
    <path transform="translate(32.0,0.0) scale(0.009766,-0.009766)" d="M148 1366H317V1H148Z"/>
    <path transform="translate(41.9,0.0) scale(0.009766,-0.009766)" d="M612 25Q578 14 529.5 7.0Q481 0 448 0Q98 0 98 296Q98 395 133.5 490.5Q169 586 242.5 649.0Q316 712 428 712Q550 712 628.5 633.5Q707 555 744.5 430.0Q782 305 782 166Q782 -113 628.5 -296.0Q475 -479 168 -538L108 -384Q326 -343 457.0 -231.5Q588 -120 612 25ZM616 199Q595 535 420 535Q359 535 324.5 494.0Q290 453 276.5 398.5Q263 344 263 301Q263 232 309.5 204.0Q356 176 453 176Q492 176 534.0 181.5Q576 187 616 199Z"/>
    <path transform="translate(55.7,0.0) scale(0.009766,-0.009766)" d="M98 209Q214 181 307 181Q646 181 646 350Q646 375 634.0 416.5Q622 458 610 487L449 892L604 963L812 432Q871 283 921.5 231.5Q972 180 1033 180H1075V0H1033Q941 0 871.5 34.0Q802 68 747 162Q680 82 581.5 41.5Q483 1 322 1Q254 1 200.0 8.0Q146 15 98 26Z"/>
    <path transform="translate(66.0,0.0) scale(0.009766,-0.009766)" d="M727 356Q726 177 593.5 88.5Q461 0 166 0H-20V180H165Q371 180 461.0 221.5Q551 263 551 359Q551 413 510.0 472.5Q469 532 402.0 596.5Q335 661 254.0 728.5Q173 796 93 865Q42 908 42 983Q42 1027 66.5 1069.5Q91 1112 146 1133L890 1410V1234L215 984Q291 923 379.5 852.5Q468 782 547.0 703.0Q626 624 676.5 537.0Q727 450 727 356Z"/>
    <path transform="translate(80.6,0.0) scale(0.009766,-0.009766)" d="M547 0H522Q339 0 243.5 94.0Q148 188 148 405V1366H317V404Q317 277 370.0 228.5Q423 180 522 180H547Z"/>
    <path transform="translate(85.7,0.0) scale(0.009766,-0.009766)" d="M585 951Q929 784 1100.0 638.0Q1271 492 1271 353Q1271 183 1163.0 96.5Q1055 10 879 10Q813 10 739.0 20.5Q665 31 598.0 46.5Q531 62 485 77Q403 46 291.0 23.0Q179 0 75 0H-20V180H63Q129 180 177.0 181.5Q225 183 280 190Q216 244 184.5 310.5Q153 377 153 466Q153 566 200.0 638.0Q247 710 325.0 748.5Q403 787 495 787Q541 787 580 777L509 813ZM728 699Q783 651 804.0 602.0Q825 553 825 483Q825 392 789.5 318.0Q754 244 689 186Q730 181 777.5 178.0Q825 175 862 175Q1096 175 1096 350Q1096 492 728 699ZM503 240Q588 274 631.0 335.0Q674 396 675 463Q675 546 628.0 589.0Q581 632 504 632Q423 632 373.0 587.5Q323 543 323 468Q323 398 368.5 336.0Q414 274 503 240Z"/>
    <path transform="translate(99.1,0.0) scale(0.009766,-0.009766)" d="M757 -303 903 -158 1049 -303 903 -449ZM985 0H840Q481 0 289.5 121.5Q98 243 98 484Q98 551 112.5 615.0Q127 679 152 738L305 681Q289 639 281.0 591.0Q273 543 273 499Q274 334 414.0 257.0Q554 180 830 180H980Q1173 180 1299.0 211.5Q1425 243 1480 309Q1497 329 1506.0 359.0Q1515 389 1515 432Q1515 472 1512.5 511.5Q1510 551 1508 588L1669 608L1685 360Q1691 270 1736.0 225.0Q1781 180 1873 180H1898V0H1873Q1766 0 1693.5 45.0Q1621 90 1576 178Q1491 88 1339.5 44.0Q1188 0 985 0Z"/>
    <path transform="translate(117.4,0.0) scale(0.009766,-0.009766)" d="M718 1184 850 1316 983 1184 850 1051ZM890 922 1022 1054 1155 922 1022 789ZM550 922 682 1054 815 922 682 789ZM1153 180Q1292 180 1292 402Q1292 507 1248 666L1412 707Q1436 631 1450.0 559.5Q1464 488 1464 417Q1464 303 1434.0 208.5Q1404 114 1336.0 57.5Q1268 1 1154 0Q982 0 911 143Q807 0 636 0Q437 0 372 143Q289 0 49 0H-20V180H51Q173 180 233.0 225.5Q293 271 293 389Q293 415 290.5 459.0Q288 503 283 567L448 587L464 361Q470 282 513.0 231.0Q556 180 638 180Q737 180 780.0 234.0Q823 288 823 389Q823 413 820.5 457.5Q818 502 813 567L978 587L994 361Q999 285 1037.0 232.5Q1075 180 1153 180Z"/>
    <path transform="translate(138.0,0.0) scale(0.009766,-0.009766)" d="M503 1005Q428 937 384.5 870.5Q341 804 341 709Q417 709 446.5 674.5Q476 640 476 575Q476 510 441.5 471.5Q407 433 341 433Q257 433 220.0 480.5Q183 528 183 607Q183 752 251.5 865.5Q320 979 429 1064ZM211 134Q211 189 250.0 228.5Q289 268 344 268Q399 268 438.0 228.5Q477 189 477 134Q477 79 438.0 40.0Q399 1 344 1Q289 1 250.0 39.0Q211 77 211 134Z"/>
    <path transform="translate(144.5,0.0) scale(0.009766,-0.009766)" d="M361 475Q269 250 269 72Q269 -132 378.0 -227.0Q487 -322 714 -323Q802 -323 890.5 -306.5Q979 -290 1053.0 -256.5Q1127 -223 1172.0 -172.0Q1217 -121 1217 -52Q1217 -15 1201.0 0.5Q1185 16 1138 16H974Q728 16 728 263Q728 384 783.0 489.5Q838 595 939.5 661.0Q1041 727 1182 727Q1211 727 1264.5 722.5Q1318 718 1372 695L1340 530Q1297 544 1254.0 547.5Q1211 551 1182 551Q1100 551 1045.0 521.5Q990 492 957.5 448.0Q925 404 911.0 357.5Q897 311 897 276Q897 232 913.5 212.0Q930 192 984 192H1164Q1283 191 1330.5 123.0Q1378 55 1378 -48Q1378 -186 1291.5 -287.5Q1205 -389 1056.0 -444.0Q907 -499 719 -499Q424 -499 261.0 -354.5Q98 -210 98 79Q98 186 125.0 298.5Q152 411 206 538Z"/>
    <path transform="translate(158.9,0.0) scale(0.009766,-0.009766)" d="M257 1056 389 1188 522 1056 389 923ZM429 794 561 926 694 794 561 661ZM89 794 221 926 354 794 221 661ZM530 527Q574 426 593.0 320.5Q612 215 612 113Q612 -33 555.5 -166.5Q499 -300 378.0 -399.0Q257 -498 63 -542L-10 -394Q233 -335 339.5 -202.0Q446 -69 446 97Q446 184 427.5 278.0Q409 372 368 469Z"/>
    <path transform="translate(166.0,0.0) scale(0.009766,-0.009766)" d="M427 712Q584 712 672.5 581.5Q761 451 779 180H896V0H767Q729 -205 580.0 -346.5Q431 -488 168 -538L108 -384Q324 -343 448.0 -240.0Q572 -137 609 0H462Q98 0 98 296Q98 395 133.5 490.5Q169 586 242.0 649.0Q315 712 427 712ZM616 180Q605 363 556.0 449.0Q507 535 418 535Q358 535 324.0 494.0Q290 453 276.5 398.5Q263 344 263 301Q263 236 307.0 208.0Q351 180 452 180Z"/>
    <path transform="translate(174.6,0.0) scale(0.009766,-0.009766)" d="M-20 0V180H61Q151 180 196.0 205.0Q241 230 256.0 279.5Q271 329 271 403V1366H440V404Q440 205 353.5 102.5Q267 0 60 0Z"/>
    <path transform="translate(180.3,0.0) scale(0.009766,-0.009766)" d="M874.876708984375 0.0V180.0H958.3863525390625V0.0ZM427 712Q584 712 672.5 581.5Q761 451 779 180H896V0H767Q729 -205 580.0 -346.5Q431 -488 168 -538L108 -384Q324 -343 448.0 -240.0Q572 -137 609 0H462Q98 0 98 296Q98 395 133.5 490.5Q169 586 242.0 649.0Q315 712 427 712ZM616 180Q605 363 556.0 449.0Q507 535 418 535Q358 535 324.0 494.0Q290 453 276.5 398.5Q263 344 263 301Q263 236 307.0 208.0Q351 180 452 180Z"/>
    <path transform="translate(189.5,0.0) scale(0.009766,-0.009766)" d="M530 738Q553 660 563.5 574.5Q574 489 574 416Q574 195 465.5 97.5Q357 0 129 0H-20V180H129Q228 180 288.0 198.0Q348 216 375.5 266.0Q403 316 403 413Q403 472 393.0 549.5Q383 627 366 698ZM267 -303 407 -163 548 -303 407 -445ZM-65 -303 75 -163 216 -303 75 -445Z"/>
    <path transform="translate(196.4,0.0) scale(0.009766,-0.009766)" d="M264 872 410 1017 556 872 410 726ZM610 52Q601 -79 540.5 -199.5Q480 -320 362.5 -410.5Q245 -501 63 -542L-10 -394Q235 -334 340.5 -200.5Q446 -67 446 102Q446 188 427.5 280.5Q409 373 368 469L530 527L592 325Q618 247 659.5 213.5Q701 180 771 180H810V0H782Q720 0 676.5 16.0Q633 32 610 52Z"/>
    <path transform="translate(204.1,0.0) scale(0.009766,-0.009766)" d="M787 0H763Q659 0 595.0 36.5Q531 73 493 143Q442 72 348.5 36.0Q255 0 129 0H-20V180H131Q280 180 341.0 223.5Q402 267 403 387Q403 436 400.5 489.0Q398 542 395 589L559 608L575 361Q587 180 765 180H787ZM267 -303 407 -163 548 -303 407 -445ZM-65 -303 75 -163 216 -303 75 -445Z"/>
    <path transform="translate(211.6,0.0) scale(0.009766,-0.009766)" d="M289 1334 435 1479 581 1334 435 1188ZM667 391Q572 362 466 362Q139 362 139 631Q139 727 173.5 822.0Q208 917 280.5 979.5Q353 1042 466 1042Q560 1042 627.5 994.0Q695 946 737.5 863.5Q780 781 800.0 677.0Q820 573 820 462Q820 271 764.0 171.5Q708 72 586.0 36.0Q464 0 265 0H-20V180H276Q464 180 565.0 220.5Q666 261 667 391ZM651 559Q643 627 622.5 698.0Q602 769 563.0 817.5Q524 866 459 866Q402 866 367.0 827.0Q332 788 316.0 735.0Q300 682 300 638Q300 574 345.5 553.0Q391 532 479 532Q522 532 565.0 539.0Q608 546 651 559Z"/>
    <path transform="translate(225.8,0.0) scale(0.009766,-0.009766)" d="M612 25Q578 14 529.5 7.0Q481 0 448 0Q98 0 98 296Q98 395 133.5 490.5Q169 586 242.5 649.0Q316 712 428 712Q550 712 628.5 633.5Q707 555 744.5 430.0Q782 305 782 166Q782 -113 628.5 -296.0Q475 -479 168 -538L108 -384Q326 -343 457.0 -231.5Q588 -120 612 25ZM616 199Q595 535 420 535Q359 535 324.5 494.0Q290 453 276.5 398.5Q263 344 263 301Q263 232 309.5 204.0Q356 176 453 176Q492 176 534.0 181.5Q576 187 616 199Z"/>
    <path transform="translate(239.7,0.0) scale(0.009766,-0.009766)" d="M324 365Q270 215 270 60Q270 -157 382.5 -249.5Q495 -342 719 -342Q808 -342 894.5 -324.5Q981 -307 1051.0 -275.0Q1121 -243 1162.5 -200.5Q1204 -158 1204 -107Q1204 -63 1162.5 -31.5Q1121 0 1040 0H917Q888 0 873.0 18.0Q858 36 852 62L830 154Q824 180 853 180H1457V0H1338Q1358 -41 1362.0 -67.0Q1366 -93 1366 -114Q1366 -230 1285.0 -322.0Q1204 -414 1059.0 -466.5Q914 -519 720 -519Q423 -519 261.0 -374.0Q99 -229 99 61Q99 142 117.0 245.5Q135 349 170 428Z"/>
    <path transform="translate(253.7,0.0) scale(0.009766,-0.009766)" d="M303 144Q177 0 23 0H-20V180H18Q79 180 123.0 215.0Q167 250 199.0 303.0Q231 356 256 411Q322 557 406.5 626.0Q491 695 597 695Q704 695 783.5 642.0Q863 589 906.5 501.0Q950 413 950 307Q950 151 873.0 64.5Q796 -22 652 -22Q555 -22 472.0 20.0Q389 62 303 144ZM391 300Q457 224 520.0 188.5Q583 153 644 153Q783 153 783 292Q783 390 734.5 452.5Q686 515 601 515Q531 515 479.5 448.0Q428 381 391 300Z"/>
    <path transform="translate(263.9,0.0) scale(0.009766,-0.009766)" d="M427 712Q584 712 672.5 581.5Q761 451 779 180H896V0H767Q729 -205 580.0 -346.5Q431 -488 168 -538L108 -384Q324 -343 448.0 -240.0Q572 -137 609 0H462Q98 0 98 296Q98 395 133.5 490.5Q169 586 242.0 649.0Q315 712 427 712ZM616 180Q605 363 556.0 449.0Q507 535 418 535Q358 535 324.0 494.0Q290 453 276.5 398.5Q263 344 263 301Q263 236 307.0 208.0Q351 180 452 180Z"/>
    <path transform="translate(272.5,0.0) scale(0.009766,-0.009766)" d="M530 738Q553 660 563.5 574.5Q574 489 574 416Q574 195 465.5 97.5Q357 0 129 0H-20V180H129Q228 180 288.0 198.0Q348 216 375.5 266.0Q403 316 403 413Q403 472 393.0 549.5Q383 627 366 698ZM335 1040 475 1180 616 1040 475 898ZM3 1040 143 1180 284 1040 143 898Z"/>
    <path transform="translate(279.1,0.0) scale(0.009766,-0.009766)" d="M547 0H522Q339 0 243.5 94.0Q148 188 148 405V1366H317V404Q317 277 370.0 228.5Q423 180 522 180H547Z"/>
    <path transform="translate(284.2,0.0) scale(0.009766,-0.009766)" d="M494 416Q494 215 395.0 107.5Q296 0 99 0H-20V180H99Q215 180 269.0 233.5Q323 287 323 413Q323 472 313.0 549.5Q303 627 286 698L450 738Q473 660 483.5 574.5Q494 489 494 416ZM126 1040 272 1185 418 1040 272 894Z"/>
    <path transform="translate(290.0,0.0) scale(0.009766,-0.009766)" d="M119 1439Q71 1439 35.5 1404.0Q0 1369 -59 1304L-148 1385Q-87 1453 -23.5 1510.0Q40 1567 95 1567Q137 1567 178.5 1545.5Q220 1524 261.0 1502.5Q302 1481 344 1481Q371 1481 390.0 1485.5Q409 1490 435.0 1508.0Q461 1526 508 1565L585 1464Q512 1409 460.5 1381.5Q409 1354 366 1354Q326 1354 283.5 1375.5Q241 1397 199.5 1418.0Q158 1439 119 1439ZM148 1228H317V1H148Z"/>
    <path transform="translate(299.8,0.0) scale(0.009766,-0.009766)" d="M547 0H522Q339 0 243.5 94.0Q148 188 148 405V1366H317V404Q317 277 370.0 228.5Q423 180 522 180H547Z"/>
    <path transform="translate(304.9,0.0) scale(0.009766,-0.009766)" d="M585 951Q929 784 1100.0 638.0Q1271 492 1271 353Q1271 183 1163.0 96.5Q1055 10 879 10Q813 10 739.0 20.5Q665 31 598.0 46.5Q531 62 485 77Q403 46 291.0 23.0Q179 0 75 0H-20V180H63Q129 180 177.0 181.5Q225 183 280 190Q216 244 184.5 310.5Q153 377 153 466Q153 566 200.0 638.0Q247 710 325.0 748.5Q403 787 495 787Q541 787 580 777L509 813ZM728 699Q783 651 804.0 602.0Q825 553 825 483Q825 392 789.5 318.0Q754 244 689 186Q730 181 777.5 178.0Q825 175 862 175Q1096 175 1096 350Q1096 492 728 699ZM503 240Q588 274 631.0 335.0Q674 396 675 463Q675 546 628.0 589.0Q581 632 504 632Q423 632 373.0 587.5Q323 543 323 468Q323 398 368.5 336.0Q414 274 503 240Z"/>
    <path transform="translate(316.7,0.0) scale(0.009766,-0.009766)" d="M264 872 410 1017 556 872 410 726ZM530 527Q574 426 593.0 320.5Q612 215 612 113Q612 -33 555.5 -166.5Q499 -300 378.0 -399.0Q257 -498 63 -542L-10 -394Q233 -335 339.5 -202.0Q446 -69 446 97Q446 184 427.5 278.0Q409 372 368 469Z"/>
    <path transform="translate(323.7,0.0) scale(0.009766,-0.009766)" d="M612 25Q578 14 529.5 7.0Q481 0 448 0Q98 0 98 296Q98 395 133.5 490.5Q169 586 242.5 649.0Q316 712 428 712Q550 712 628.5 633.5Q707 555 744.5 430.0Q782 305 782 166Q782 -113 628.5 -296.0Q475 -479 168 -538L108 -384Q326 -343 457.0 -231.5Q588 -120 612 25ZM616 199Q595 535 420 535Q359 535 324.5 494.0Q290 453 276.5 398.5Q263 344 263 301Q263 232 309.5 204.0Q356 176 453 176Q492 176 534.0 181.5Q576 187 616 199Z"/>
    <path transform="translate(332.0,0.0) scale(0.009766,-0.009766)" d="M530 527Q574 426 593.0 320.5Q612 215 612 113Q612 -33 555.5 -166.5Q499 -300 378.0 -399.0Q257 -498 63 -542L-10 -394Q233 -335 339.5 -202.0Q446 -69 446 97Q446 184 427.5 278.0Q409 372 368 469Z"/>
  </g>
  <g class="fa l2" fill="#a8c7dd" transform="translate(355.9,194)">
    <path transform="translate(0.0,0.0) scale(0.009766,-0.009766)" d="M183 134Q183 189 222.0 228.5Q261 268 316 268Q371 268 410.0 228.5Q449 189 449 134Q449 79 410.0 40.0Q371 1 316 1Q261 1 222.0 39.0Q183 77 183 134Z"/>
    <path transform="translate(6.2,0.0) scale(0.009766,-0.009766)" d="M562 609 708 754 854 609 708 463ZM1177 100Q1177 281 1087 469L1256 527L1328 301Q1348 240 1389.5 210.0Q1431 180 1508 180H1548V0H1512Q1447 0 1409.5 15.5Q1372 31 1342 59Q1339 -129 1258.0 -258.5Q1177 -388 1038.0 -454.0Q899 -520 721 -520Q424 -520 261.0 -372.0Q98 -224 98 56Q98 266 188 485L343 422Q270 229 270 61Q270 -143 379.5 -242.5Q489 -342 718 -342Q941 -342 1058.5 -232.5Q1176 -123 1177 100Z"/>
    <path transform="translate(21.1,0.0) scale(0.009766,-0.009766)" d="M530 738Q553 660 563.5 574.5Q574 489 574 416Q574 195 465.5 97.5Q357 0 129 0H-20V180H129Q228 180 288.0 198.0Q348 216 375.5 266.0Q403 316 403 413Q403 472 393.0 549.5Q383 627 366 698ZM267 -303 407 -163 548 -303 407 -445ZM-65 -303 75 -163 216 -303 75 -445Z"/>
    <path transform="translate(27.9,0.0) scale(0.009766,-0.009766)" d="M610 52Q601 -79 540.5 -199.5Q480 -320 362.5 -410.5Q245 -501 63 -542L-10 -394Q235 -334 340.5 -200.5Q446 -67 446 102Q446 188 427.5 280.5Q409 373 368 469L530 527L592 325Q618 247 659.5 213.5Q701 180 771 180H810V0H782Q720 0 676.5 16.0Q633 32 610 52Z"/>
    <path transform="translate(35.7,0.0) scale(0.009766,-0.009766)" d="M289 1334 435 1479 581 1334 435 1188ZM667 391Q572 362 466 362Q139 362 139 631Q139 727 173.5 822.0Q208 917 280.5 979.5Q353 1042 466 1042Q560 1042 627.5 994.0Q695 946 737.5 863.5Q780 781 800.0 677.0Q820 573 820 462Q820 271 764.0 171.5Q708 72 586.0 36.0Q464 0 265 0H-20V180H276Q464 180 565.0 220.5Q666 261 667 391ZM651 559Q643 627 622.5 698.0Q602 769 563.0 817.5Q524 866 459 866Q402 866 367.0 827.0Q332 788 316.0 735.0Q300 682 300 638Q300 574 345.5 553.0Q391 532 479 532Q522 532 565.0 539.0Q608 546 651 559Z"/>
    <path transform="translate(44.6,0.0) scale(0.009766,-0.009766)" d="M119 1439Q71 1439 35.5 1404.0Q0 1369 -59 1304L-148 1385Q-87 1453 -23.5 1510.0Q40 1567 95 1567Q137 1567 178.5 1545.5Q220 1524 261.0 1502.5Q302 1481 344 1481Q371 1481 390.0 1485.5Q409 1490 435.0 1508.0Q461 1526 508 1565L585 1464Q512 1409 460.5 1381.5Q409 1354 366 1354Q326 1354 283.5 1375.5Q241 1397 199.5 1418.0Q158 1439 119 1439ZM148 1228H317V1H148Z"/>
    <path transform="translate(47.8,0.0) scale(0.009766,-0.009766)" d="M530 527Q574 426 593.0 320.5Q612 215 612 113Q612 -33 555.5 -166.5Q499 -300 378.0 -399.0Q257 -498 63 -542L-10 -394Q233 -335 339.5 -202.0Q446 -69 446 97Q446 184 427.5 278.0Q409 372 368 469Z"/>
    <path transform="translate(54.7,0.0) scale(0.009766,-0.009766)" d="M547 0H522Q339 0 243.5 94.0Q148 188 148 405V1366H317V404Q317 277 370.0 228.5Q423 180 522 180H547Z"/>
    <path transform="translate(59.9,0.0) scale(0.009766,-0.009766)" d="M727 356Q726 177 593.5 88.5Q461 0 166 0H-20V180H165Q371 180 461.0 221.5Q551 263 551 359Q551 413 510.0 472.5Q469 532 402.0 596.5Q335 661 254.0 728.5Q173 796 93 865Q42 908 42 983Q42 1027 66.5 1069.5Q91 1112 146 1133L890 1410V1234L215 984Q291 923 379.5 852.5Q468 782 547.0 703.0Q626 624 676.5 537.0Q727 450 727 356Z"/>
    <path transform="translate(74.4,0.0) scale(0.009766,-0.009766)" d="M612 25Q578 14 529.5 7.0Q481 0 448 0Q98 0 98 296Q98 395 133.5 490.5Q169 586 242.5 649.0Q316 712 428 712Q550 712 628.5 633.5Q707 555 744.5 430.0Q782 305 782 166Q782 -113 628.5 -296.0Q475 -479 168 -538L108 -384Q326 -343 457.0 -231.5Q588 -120 612 25ZM616 199Q595 535 420 535Q359 535 324.5 494.0Q290 453 276.5 398.5Q263 344 263 301Q263 232 309.5 204.0Q356 176 453 176Q492 176 534.0 181.5Q576 187 616 199Z"/>
    <path transform="translate(88.3,0.0) scale(0.009766,-0.009766)" d="M836 550Q817 558 802.0 564.0Q787 570 745 587Q644 628 578.0 652.0Q512 676 477 676Q420 676 366.5 643.0Q313 610 276 562L249 527L98 602L113 628Q176 731 270.5 792.5Q365 854 478 854Q541 854 617.0 827.5Q693 801 781 758Q936 682 1039.0 647.5Q1142 613 1228 608L1215 438Q1015 422 842.5 373.0Q670 324 540.0 248.0Q410 172 337.5 75.0Q265 -22 265 -135Q265 -506 798 -506Q906 -506 1010.0 -489.0Q1114 -472 1213 -426L1258 -591Q1158 -639 1038.0 -658.0Q918 -677 784 -677Q582 -677 427.5 -620.5Q273 -564 186.0 -447.5Q99 -331 99 -151Q99 10 183.0 149.5Q267 289 431.0 392.5Q595 496 836 550Z"/>
    <path transform="translate(101.5,0.0) scale(0.009766,-0.009766)" d="M148 1366H317V1H148Z"/>
    <path transform="translate(104.6,0.0) scale(0.009766,-0.009766)" d="M610 52Q601 -79 540.5 -199.5Q480 -320 362.5 -410.5Q245 -501 63 -542L-10 -394Q235 -334 340.5 -200.5Q446 -67 446 102Q446 188 427.5 280.5Q409 373 368 469L530 527L592 325Q618 247 659.5 213.5Q701 180 771 180H810V0H782Q720 0 676.5 16.0Q633 32 610 52Z"/>
    <path transform="translate(112.3,0.0) scale(0.009766,-0.009766)" d="M384 536Q485 659 593.0 723.0Q701 787 819 787Q930 787 1014.5 739.0Q1099 691 1147.0 608.5Q1195 526 1195 422Q1195 0 476 0H-20V180H140Q159 209 178.0 238.0Q197 267 215 295V1366H384ZM471 182Q1017 182 1017 414Q1017 496 963.0 551.0Q909 606 822 606Q707 606 582.0 497.5Q457 389 323 181Z"/>
    <path transform="translate(130.2,0.0) scale(0.009766,-0.009766)" d="M503 573Q428 505 384.5 438.5Q341 372 341 277Q417 277 446.5 242.5Q476 208 476 143Q476 78 441.5 39.5Q407 1 341 1Q257 1 220.0 48.5Q183 96 183 175Q183 320 251.5 433.5Q320 547 429 632Z"/>
    <path transform="translate(136.8,0.0) scale(0.009766,-0.009766)" d="M324 365Q270 215 270 60Q270 -157 382.5 -249.5Q495 -342 719 -342Q808 -342 894.5 -324.5Q981 -307 1051.0 -275.0Q1121 -243 1162.5 -200.5Q1204 -158 1204 -107Q1204 -63 1162.5 -31.5Q1121 0 1040 0H917Q888 0 873.0 18.0Q858 36 852 62L830 154Q824 180 853 180H1457V0H1338Q1358 -41 1362.0 -67.0Q1366 -93 1366 -114Q1366 -230 1285.0 -322.0Q1204 -414 1059.0 -466.5Q914 -519 720 -519Q423 -519 261.0 -374.0Q99 -229 99 61Q99 142 117.0 245.5Q135 349 170 428Z"/>
    <path transform="translate(150.8,0.0) scale(0.009766,-0.009766)" d="M303 144Q177 0 23 0H-20V180H18Q79 180 123.0 215.0Q167 250 199.0 303.0Q231 356 256 411Q322 557 406.5 626.0Q491 695 597 695Q704 695 783.5 642.0Q863 589 906.5 501.0Q950 413 950 307Q950 151 873.0 64.5Q796 -22 652 -22Q555 -22 472.0 20.0Q389 62 303 144ZM391 300Q457 224 520.0 188.5Q583 153 644 153Q783 153 783 292Q783 390 734.5 452.5Q686 515 601 515Q531 515 479.5 448.0Q428 381 391 300Z"/>
    <path transform="translate(161.0,0.0) scale(0.009766,-0.009766)" d="M148 1366H317V1H148Z"/>
    <path transform="translate(164.2,0.0) scale(0.009766,-0.009766)" d="M610 52Q601 -79 540.5 -199.5Q480 -320 362.5 -410.5Q245 -501 63 -542L-10 -394Q235 -334 340.5 -200.5Q446 -67 446 102Q446 188 427.5 280.5Q409 373 368 469L530 527L592 325Q618 247 659.5 213.5Q701 180 771 180H810V0H782Q720 0 676.5 16.0Q633 32 610 52Z"/>
    <path transform="translate(171.9,0.0) scale(0.009766,-0.009766)" d="M215 984Q310 908 410.5 826.0Q511 744 596.0 648.0Q681 552 728 432Q777 308 847.5 244.0Q918 180 1018 180H1047V0H1018Q908 0 821.5 45.5Q735 91 669 179Q611 90 494.5 45.0Q378 0 166 0H-20V180H165Q371 180 461.0 221.5Q551 263 551 359Q551 413 510.0 472.5Q469 532 402.0 596.5Q335 661 254.0 728.5Q173 796 93 865Q42 908 42 983Q42 1027 66.5 1069.5Q91 1112 146 1133L890 1410V1234ZM881.4553833007812 1537.1834106445312 103.56005859375 1248.2814331054688V1356.3521728515625L881.4553833007812 1645.254150390625Z"/>
    <path transform="translate(182.0,0.0) scale(0.009766,-0.009766)" d="M348 143Q299 73 235.0 36.5Q171 0 43 0H-20V180H45Q164 180 217.0 232.5Q270 285 271 389V1366H440V389Q440 285 484.5 232.5Q529 180 638 180H670V0H640Q531 0 465.0 36.5Q399 73 348 143Z"/>
    <path transform="translate(188.3,0.0) scale(0.009766,-0.009766)" d="M530 738Q553 660 563.5 574.5Q574 489 574 416Q574 195 465.5 97.5Q357 0 129 0H-20V180H129Q228 180 288.0 198.0Q348 216 375.5 266.0Q403 316 403 413Q403 472 393.0 549.5Q383 627 366 698ZM335 1040 475 1180 616 1040 475 898ZM3 1040 143 1180 284 1040 143 898Z"/>
    <path transform="translate(200.1,0.0) scale(0.009766,-0.009766)" d="M361 475Q269 250 269 72Q269 -132 378.0 -227.0Q487 -322 714 -323Q802 -323 890.5 -306.5Q979 -290 1053.0 -256.5Q1127 -223 1172.0 -172.0Q1217 -121 1217 -52Q1217 -15 1201.0 0.5Q1185 16 1138 16H974Q728 16 728 263Q728 384 783.0 489.5Q838 595 939.5 661.0Q1041 727 1182 727Q1211 727 1264.5 722.5Q1318 718 1372 695L1340 530Q1297 544 1254.0 547.5Q1211 551 1182 551Q1100 551 1045.0 521.5Q990 492 957.5 448.0Q925 404 911.0 357.5Q897 311 897 276Q897 232 913.5 212.0Q930 192 984 192H1164Q1283 191 1330.5 123.0Q1378 55 1378 -48Q1378 -186 1291.5 -287.5Q1205 -389 1056.0 -444.0Q907 -499 719 -499Q424 -499 261.0 -354.5Q98 -210 98 79Q98 186 125.0 298.5Q152 411 206 538Z"/>
    <path transform="translate(214.6,0.0) scale(0.009766,-0.009766)" d="M547 0H522Q339 0 243.5 94.0Q148 188 148 405V1366H317V404Q317 277 370.0 228.5Q423 180 522 180H547Z"/>
    <path transform="translate(219.7,0.0) scale(0.009766,-0.009766)" d="M585 951Q929 784 1100.0 638.0Q1271 492 1271 353Q1271 183 1163.0 96.5Q1055 10 879 10Q813 10 739.0 20.5Q665 31 598.0 46.5Q531 62 485 77Q403 46 291.0 23.0Q179 0 75 0H-20V180H63Q129 180 177.0 181.5Q225 183 280 190Q216 244 184.5 310.5Q153 377 153 466Q153 566 200.0 638.0Q247 710 325.0 748.5Q403 787 495 787Q541 787 580 777L509 813ZM728 699Q783 651 804.0 602.0Q825 553 825 483Q825 392 789.5 318.0Q754 244 689 186Q730 181 777.5 178.0Q825 175 862 175Q1096 175 1096 350Q1096 492 728 699ZM503 240Q588 274 631.0 335.0Q674 396 675 463Q675 546 628.0 589.0Q581 632 504 632Q423 632 373.0 587.5Q323 543 323 468Q323 398 368.5 336.0Q414 274 503 240Z"/>
    <path transform="translate(233.1,0.0) scale(0.009766,-0.009766)" d="M975 0H840Q481 0 289.5 121.5Q98 243 98 484Q98 551 112.5 615.0Q127 679 152 738L305 681Q289 639 281.0 591.0Q273 543 273 499Q274 334 414.0 257.0Q554 180 830 180H968Q1071 180 1167.0 185.0Q1263 190 1339.5 213.5Q1416 237 1461.0 292.5Q1506 348 1506 448Q1506 538 1470 698L1634 738Q1657 663 1668.0 582.0Q1679 501 1679 463Q1679 312 1627.5 219.5Q1576 127 1481.5 80.0Q1387 33 1258.0 16.5Q1129 0 975 0ZM921 860 1061 1000 1202 860 1061 718ZM589 860 729 1000 870 860 729 718Z"/>
    <path transform="translate(250.4,0.0) scale(0.009766,-0.009766)" d="M547 0H522Q339 0 243.5 94.0Q148 188 148 405V1366H317V404Q317 277 370.0 228.5Q423 180 522 180H547Z"/>
    <path transform="translate(255.6,0.0) scale(0.009766,-0.009766)" d="M494 416Q494 215 395.0 107.5Q296 0 99 0H-20V180H99Q215 180 269.0 233.5Q323 287 323 413Q323 472 313.0 549.5Q303 627 286 698L450 738Q473 660 483.5 574.5Q494 489 494 416ZM59 -303 205 -158 351 -303 205 -449Z"/>
    <path transform="translate(261.4,0.0) scale(0.009766,-0.009766)" d="M530 527Q574 426 593.0 320.5Q612 215 612 113Q612 -33 555.5 -166.5Q499 -300 378.0 -399.0Q257 -498 63 -542L-10 -394Q233 -335 339.5 -202.0Q446 -69 446 97Q446 184 427.5 278.0Q409 372 368 469Z"/>
    <path transform="translate(273.6,0.0) scale(0.009766,-0.009766)" d="M361 475Q269 250 269 72Q269 -132 378.0 -227.0Q487 -322 714 -323Q802 -323 890.5 -306.5Q979 -290 1053.0 -256.5Q1127 -223 1172.0 -172.0Q1217 -121 1217 -52Q1217 -15 1201.0 0.5Q1185 16 1138 16H974Q728 16 728 263Q728 384 783.0 489.5Q838 595 939.5 661.0Q1041 727 1182 727Q1211 727 1264.5 722.5Q1318 718 1372 695L1340 530Q1297 544 1254.0 547.5Q1211 551 1182 551Q1100 551 1045.0 521.5Q990 492 957.5 448.0Q925 404 911.0 357.5Q897 311 897 276Q897 232 913.5 212.0Q930 192 984 192H1164Q1283 191 1330.5 123.0Q1378 55 1378 -48Q1378 -186 1291.5 -287.5Q1205 -389 1056.0 -444.0Q907 -499 719 -499Q424 -499 261.0 -354.5Q98 -210 98 79Q98 186 125.0 298.5Q152 411 206 538Z"/>
    <path transform="translate(288.0,0.0) scale(0.009766,-0.009766)" d="M369 922Q587 752 705.5 609.5Q824 467 824 324Q824 178 724.0 91.0Q624 4 461 4Q295 4 196.5 86.0Q98 168 98 324Q98 435 154.5 528.0Q211 621 323 746L272 792ZM447 625Q353 542 309.0 468.0Q265 394 265 329Q265 260 311.0 220.0Q357 180 460 180Q564 180 610.5 216.5Q657 253 657 330Q657 391 605.5 465.0Q554 539 447 625Z"/>
    <path transform="translate(297.0,0.0) scale(0.009766,-0.009766)" d="M98 209Q214 181 307 181Q646 181 646 350Q646 375 634.0 416.5Q622 458 610 487L449 892L604 963L812 432Q871 283 921.5 231.5Q972 180 1033 180H1075V0H1033Q941 0 871.5 34.0Q802 68 747 162Q680 82 581.5 41.5Q483 1 322 1Q254 1 200.0 8.0Q146 15 98 26Z"/>
    <path transform="translate(307.3,0.0) scale(0.009766,-0.009766)" d="M494 416Q494 215 395.0 107.5Q296 0 99 0H-20V180H99Q215 180 269.0 233.5Q323 287 323 413Q323 472 313.0 549.5Q303 627 286 698L450 738Q473 660 483.5 574.5Q494 489 494 416ZM126 1040 272 1185 418 1040 272 894Z"/>
    <path transform="translate(311.5,0.0) scale(0.009766,-0.009766)" d="M264 872 410 1017 556 872 410 726ZM530 527Q574 426 593.0 320.5Q612 215 612 113Q612 -33 555.5 -166.5Q499 -300 378.0 -399.0Q257 -498 63 -542L-10 -394Q233 -335 339.5 -202.0Q446 -69 446 97Q446 184 427.5 278.0Q409 372 368 469Z"/>
    <path transform="translate(318.5,0.0) scale(0.009766,-0.009766)" d="M547 0H522Q339 0 243.5 94.0Q148 188 148 405V1366H317V404Q317 277 370.0 228.5Q423 180 522 180H547Z"/>
    <path transform="translate(323.6,0.0) scale(0.009766,-0.009766)" d="M1153 180Q1292 180 1292 402Q1292 507 1248 666L1412 707Q1436 631 1450.0 559.5Q1464 488 1464 417Q1464 303 1434.0 208.5Q1404 114 1336.0 57.5Q1268 1 1154 0Q982 0 911 143Q807 0 636 0Q437 0 372 143Q289 0 49 0H-20V180H51Q173 180 233.0 225.5Q293 271 293 389Q293 415 290.5 459.0Q288 503 283 567L448 587L464 361Q470 282 513.0 231.0Q556 180 638 180Q737 180 780.0 234.0Q823 288 823 389Q823 413 820.5 457.5Q818 502 813 567L978 587L994 361Q999 285 1037.0 232.5Q1075 180 1153 180Z"/>
    <path transform="translate(344.1,0.0) scale(0.009766,-0.009766)" d="M503 573Q428 505 384.5 438.5Q341 372 341 277Q417 277 446.5 242.5Q476 208 476 143Q476 78 441.5 39.5Q407 1 341 1Q257 1 220.0 48.5Q183 96 183 175Q183 320 251.5 433.5Q320 547 429 632Z"/>
    <path transform="translate(350.7,0.0) scale(0.009766,-0.009766)" d="M324 365Q270 215 270 60Q270 -157 382.5 -249.5Q495 -342 719 -342Q808 -342 894.5 -324.5Q981 -307 1051.0 -275.0Q1121 -243 1162.5 -200.5Q1204 -158 1204 -107Q1204 -63 1162.5 -31.5Q1121 0 1040 0H917Q888 0 873.0 18.0Q858 36 852 62L830 154Q824 180 853 180H1457V0H1338Q1358 -41 1362.0 -67.0Q1366 -93 1366 -114Q1366 -230 1285.0 -322.0Q1204 -414 1059.0 -466.5Q914 -519 720 -519Q423 -519 261.0 -374.0Q99 -229 99 61Q99 142 117.0 245.5Q135 349 170 428Z"/>
    <path transform="translate(364.7,0.0) scale(0.009766,-0.009766)" d="M215 984Q310 908 410.5 826.0Q511 744 596.0 648.0Q681 552 728 432Q777 308 847.5 244.0Q918 180 1018 180H1047V0H1018Q908 0 821.5 45.5Q735 91 669 179Q611 90 494.5 45.0Q378 0 166 0H-20V180H165Q371 180 461.0 221.5Q551 263 551 359Q551 413 510.0 472.5Q469 532 402.0 596.5Q335 661 254.0 728.5Q173 796 93 865Q42 908 42 983Q42 1027 66.5 1069.5Q91 1112 146 1133L890 1410V1234Z"/>
    <path transform="translate(374.7,0.0) scale(0.009766,-0.009766)" d="M718 1184 850 1316 983 1184 850 1051ZM890 922 1022 1054 1155 922 1022 789ZM550 922 682 1054 815 922 682 789ZM1153 180Q1292 180 1292 402Q1292 507 1248 666L1412 707Q1436 631 1450.0 559.5Q1464 488 1464 417Q1464 303 1434.0 208.5Q1404 114 1336.0 57.5Q1268 1 1154 0Q982 0 911 143Q807 0 636 0Q437 0 372 143Q289 0 49 0H-20V180H51Q173 180 233.0 225.5Q293 271 293 389Q293 415 290.5 459.0Q288 503 283 567L448 587L464 361Q470 282 513.0 231.0Q556 180 638 180Q737 180 780.0 234.0Q823 288 823 389Q823 413 820.5 457.5Q818 502 813 567L978 587L994 361Q999 285 1037.0 232.5Q1075 180 1153 180Z"/>
    <path transform="translate(388.4,0.0) scale(0.009766,-0.009766)" d="M264 872 410 1017 556 872 410 726ZM610 52Q601 -79 540.5 -199.5Q480 -320 362.5 -410.5Q245 -501 63 -542L-10 -394Q235 -334 340.5 -200.5Q446 -67 446 102Q446 188 427.5 280.5Q409 373 368 469L530 527L592 325Q618 247 659.5 213.5Q701 180 771 180H810V0H782Q720 0 676.5 16.0Q633 32 610 52Z"/>
    <path transform="translate(396.1,0.0) scale(0.009766,-0.009766)" d="M276 -268 408 -135 541 -268 408 -400ZM-64 -268 68 -135 201 -268 68 -400ZM104 -530 236 -397 369 -530 236 -662ZM530 738Q553 660 563.5 574.5Q574 489 574 416Q574 195 465.5 97.5Q357 0 129 0H-20V180H129Q228 180 288.0 198.0Q348 216 375.5 266.0Q403 316 403 413Q403 472 393.0 549.5Q383 627 366 698Z"/>
    <path transform="translate(408.0,0.0) scale(0.009766,-0.009766)" d="M361 475Q269 250 269 72Q269 -132 378.0 -227.0Q487 -322 714 -323Q802 -323 890.5 -306.5Q979 -290 1053.0 -256.5Q1127 -223 1172.0 -172.0Q1217 -121 1217 -52Q1217 -15 1201.0 0.5Q1185 16 1138 16H974Q728 16 728 263Q728 384 783.0 489.5Q838 595 939.5 661.0Q1041 727 1182 727Q1211 727 1264.5 722.5Q1318 718 1372 695L1340 530Q1297 544 1254.0 547.5Q1211 551 1182 551Q1100 551 1045.0 521.5Q990 492 957.5 448.0Q925 404 911.0 357.5Q897 311 897 276Q897 232 913.5 212.0Q930 192 984 192H1164Q1283 191 1330.5 123.0Q1378 55 1378 -48Q1378 -186 1291.5 -287.5Q1205 -389 1056.0 -444.0Q907 -499 719 -499Q424 -499 261.0 -354.5Q98 -210 98 79Q98 186 125.0 298.5Q152 411 206 538Z"/>
    <path transform="translate(422.4,0.0) scale(0.009766,-0.009766)" d="M427 712Q584 712 672.5 581.5Q761 451 779 180H896V0H767Q729 -205 580.0 -346.5Q431 -488 168 -538L108 -384Q324 -343 448.0 -240.0Q572 -137 609 0H462Q98 0 98 296Q98 395 133.5 490.5Q169 586 242.0 649.0Q315 712 427 712ZM616 180Q605 363 556.0 449.0Q507 535 418 535Q358 535 324.0 494.0Q290 453 276.5 398.5Q263 344 263 301Q263 236 307.0 208.0Q351 180 452 180Z"/>
    <path transform="translate(430.9,0.0) scale(0.009766,-0.009766)" d="M489 -303 635 -158 781 -303 635 -449ZM1244 384Q1204 380 1154.0 366.5Q1104 353 1042 323Q1045 247 1112.5 213.5Q1180 180 1317 180H1371V0H1313Q1129 0 1029.5 59.5Q930 119 913 253Q725 150 534.0 75.0Q343 0 140 0H-20V180H143Q273 180 385.0 208.5Q497 237 613.0 290.0Q729 343 870 416L948 457Q926 464 892.0 479.5Q858 495 763 533Q662 574 596.0 598.0Q530 622 495 622Q438 622 384.5 589.0Q331 556 294 508L267 473L116 548L131 574Q194 677 288.5 738.5Q383 800 496 800Q559 800 635.0 773.5Q711 747 799 704Q954 628 1057.0 593.5Q1160 559 1246 554Z"/>
    <path transform="translate(444.1,0.0) scale(0.009766,-0.009766)" d="M718 1184 850 1316 983 1184 850 1051ZM890 922 1022 1054 1155 922 1022 789ZM550 922 682 1054 815 922 682 789ZM1153 180Q1292 180 1292 387Q1292 421 1289.5 471.0Q1287 521 1282 588L1447 608L1463 361Q1475 180 1648 180H1678V0H1650Q1552 0 1484.5 35.0Q1417 70 1391 143Q1353 70 1296.5 35.0Q1240 0 1154 0Q982 0 911 143Q807 0 636 0Q436 2 372 143Q289 0 49 0H-20V180H51Q173 180 233.0 225.5Q293 271 293 389Q293 415 290.5 459.0Q288 503 283 567L448 587L464 361Q470 282 513.0 231.0Q556 180 638 180Q737 180 780.0 234.0Q823 288 823 389Q823 413 820.5 457.5Q818 502 813 567L978 587L994 361Q999 285 1037.0 232.5Q1075 180 1153 180Z"/>
    <path transform="translate(460.3,0.0) scale(0.009766,-0.009766)" d="M494 416Q494 215 395.0 107.5Q296 0 99 0H-20V180H99Q215 180 269.0 233.5Q323 287 323 413Q323 472 313.0 549.5Q303 627 286 698L450 738Q473 660 483.5 574.5Q494 489 494 416ZM126 1040 272 1185 418 1040 272 894Z"/>
    <path transform="translate(466.1,0.0) scale(0.009766,-0.009766)" d="M148 1366H317V1H148Z"/>
    <path transform="translate(470.7,0.0) scale(0.009766,-0.009766)" d="M98 207Q226 181 317 181Q689 181 689 364Q689 554 275 815L373 963Q865 669 865 367Q865 2 330 2Q267 2 209.0 8.5Q151 15 98 26Z"/>
  </g>
  <g class="fa l3" fill="#a8c7dd" transform="translate(503.2,232)">
    <path transform="translate(0.0,0.0) scale(0.009766,-0.009766)" d="M183 134Q183 189 222.0 228.5Q261 268 316 268Q371 268 410.0 228.5Q449 189 449 134Q449 79 410.0 40.0Q371 1 316 1Q261 1 222.0 39.0Q183 77 183 134Z"/>
    <path transform="translate(6.2,0.0) scale(0.009766,-0.009766)" d="M561 682 707 827 853 682 707 536ZM1087 539 1260 599Q1307 481 1328.0 365.5Q1349 250 1349 140Q1349 -53 1268.5 -184.5Q1188 -316 1046.0 -383.0Q904 -450 721 -450Q424 -450 261.0 -302.0Q98 -154 98 126Q98 336 188 555L343 492Q270 299 270 131Q270 -72 379.5 -172.0Q489 -272 718 -272Q941 -272 1058.5 -162.5Q1176 -53 1177 170Q1177 351 1087 539Z"/>
    <path transform="translate(20.3,0.0) scale(0.009766,-0.009766)" d="M547 0H522Q339 0 243.5 94.0Q148 188 148 405V1366H317V404Q317 277 370.0 228.5Q423 180 522 180H547Z"/>
    <path transform="translate(25.4,0.0) scale(0.009766,-0.009766)" d="M616 -540Q280 -380 217 0H-20V180H204Q213 351 244.5 490.5Q276 630 348.0 713.0Q420 796 548 796Q670 796 740.0 710.0Q810 624 810 487Q810 397 774.5 311.0Q739 225 678.0 155.5Q617 86 539.0 44.0Q461 2 376 -1Q413 -210 585 -321Q585 -85 685.5 47.5Q786 180 988 180H1022V0H986Q733 0 733 -330Q733 -351 734.0 -375.0Q735 -399 737 -422ZM367 179Q445 182 509.5 223.5Q574 265 612.5 334.0Q651 403 651 487Q651 554 621.5 588.0Q592 622 546 622Q461 622 419.5 511.0Q378 400 367 179Z"/>
    <path transform="translate(35.2,0.0) scale(0.009766,-0.009766)" d="M787 0H763Q659 0 595.0 36.5Q531 73 493 143Q442 72 348.5 36.0Q255 0 129 0H-20V180H131Q280 180 341.0 223.5Q402 267 403 387Q403 436 400.5 489.0Q398 542 395 589L559 608L575 361Q587 180 765 180H787ZM267 -303 407 -163 548 -303 407 -445ZM-65 -303 75 -163 216 -303 75 -445Z"/>
    <path transform="translate(42.7,0.0) scale(0.009766,-0.009766)" d="M727 356Q726 177 593.5 88.5Q461 0 166 0H-20V180H165Q371 180 461.0 221.5Q551 263 551 359Q551 413 510.0 472.5Q469 532 402.0 596.5Q335 661 254.0 728.5Q173 796 93 865Q42 908 42 983Q42 1027 66.5 1069.5Q91 1112 146 1133L890 1410V1234L215 984Q291 923 379.5 852.5Q468 782 547.0 703.0Q626 624 676.5 537.0Q727 450 727 356Z"/>
    <path transform="translate(57.3,0.0) scale(0.009766,-0.009766)" d="M612 25Q578 14 529.5 7.0Q481 0 448 0Q98 0 98 296Q98 395 133.5 490.5Q169 586 242.5 649.0Q316 712 428 712Q550 712 628.5 633.5Q707 555 744.5 430.0Q782 305 782 166Q782 -113 628.5 -296.0Q475 -479 168 -538L108 -384Q326 -343 457.0 -231.5Q588 -120 612 25ZM616 199Q595 535 420 535Q359 535 324.5 494.0Q290 453 276.5 398.5Q263 344 263 301Q263 232 309.5 204.0Q356 176 453 176Q492 176 534.0 181.5Q576 187 616 199Z"/>
    <path transform="translate(71.1,0.0) scale(0.009766,-0.009766)" d="M547 0H522Q339 0 243.5 94.0Q148 188 148 405V1366H317V404Q317 277 370.0 228.5Q423 180 522 180H547Z"/>
    <path transform="translate(76.3,0.0) scale(0.009766,-0.009766)" d="M585 951Q929 784 1100.0 638.0Q1271 492 1271 353Q1271 183 1163.0 96.5Q1055 10 879 10Q813 10 739.0 20.5Q665 31 598.0 46.5Q531 62 485 77Q403 46 291.0 23.0Q179 0 75 0H-20V180H63Q129 180 177.0 181.5Q225 183 280 190Q216 244 184.5 310.5Q153 377 153 466Q153 566 200.0 638.0Q247 710 325.0 748.5Q403 787 495 787Q541 787 580 777L509 813ZM728 699Q783 651 804.0 602.0Q825 553 825 483Q825 392 789.5 318.0Q754 244 689 186Q730 181 777.5 178.0Q825 175 862 175Q1096 175 1096 350Q1096 492 728 699ZM503 240Q588 274 631.0 335.0Q674 396 675 463Q675 546 628.0 589.0Q581 632 504 632Q423 632 373.0 587.5Q323 543 323 468Q323 398 368.5 336.0Q414 274 503 240Z"/>
    <path transform="translate(89.7,0.0) scale(0.009766,-0.009766)" d="M98 412Q98 559 223.0 672.0Q348 785 605 864L598 909L757 942L839 353Q850 271 897.5 225.5Q945 180 1027 180H1058V0H1023Q884 0 805.5 61.5Q727 123 701 237Q579 132 431 132Q340 132 264.0 161.5Q188 191 143.0 253.0Q98 315 98 412ZM631 703Q454 638 363.0 570.5Q272 503 272 424Q272 300 425 300Q481 300 535.0 322.0Q589 344 625.0 384.5Q661 425 661 482Q661 512 657 539Z"/>
    <path transform="translate(99.8,0.0) scale(0.009766,-0.009766)" d="M494 416Q494 215 395.0 107.5Q296 0 99 0H-20V180H99Q215 180 269.0 233.5Q323 287 323 413Q323 472 313.0 549.5Q303 627 286 698L450 738Q473 660 483.5 574.5Q494 489 494 416ZM59 -303 205 -158 351 -303 205 -449Z"/>
    <path transform="translate(105.6,0.0) scale(0.009766,-0.009766)" d="M610 52Q601 -79 540.5 -199.5Q480 -320 362.5 -410.5Q245 -501 63 -542L-10 -394Q235 -334 340.5 -200.5Q446 -67 446 102Q446 188 427.5 280.5Q409 373 368 469L530 527L592 325Q618 247 659.5 213.5Q701 180 771 180H810V0H782Q720 0 676.5 16.0Q633 32 610 52Z"/>
    <path transform="translate(113.3,0.0) scale(0.009766,-0.009766)" d="M727 356Q726 177 593.5 88.5Q461 0 166 0H-20V180H165Q371 180 461.0 221.5Q551 263 551 359Q551 413 510.0 472.5Q469 532 402.0 596.5Q335 661 254.0 728.5Q173 796 93 865Q42 908 42 983Q42 1027 66.5 1069.5Q91 1112 146 1133L890 1410V1234L215 984Q291 923 379.5 852.5Q468 782 547.0 703.0Q626 624 676.5 537.0Q727 450 727 356ZM881.4553833007812 1537.1834106445312 103.56005859375 1248.2814331054688V1356.3521728515625L881.4553833007812 1645.254150390625Z"/>
    <path transform="translate(127.8,0.0) scale(0.009766,-0.009766)" d="M503 573Q428 505 384.5 438.5Q341 372 341 277Q417 277 446.5 242.5Q476 208 476 143Q476 78 441.5 39.5Q407 1 341 1Q257 1 220.0 48.5Q183 96 183 175Q183 320 251.5 433.5Q320 547 429 632Z"/>
    <path transform="translate(134.4,0.0) scale(0.009766,-0.009766)" d="M561 682 707 827 853 682 707 536ZM1087 539 1260 599Q1307 481 1328.0 365.5Q1349 250 1349 140Q1349 -53 1268.5 -184.5Q1188 -316 1046.0 -383.0Q904 -450 721 -450Q424 -450 261.0 -302.0Q98 -154 98 126Q98 336 188 555L343 492Q270 299 270 131Q270 -72 379.5 -172.0Q489 -272 718 -272Q941 -272 1058.5 -162.5Q1176 -53 1177 170Q1177 351 1087 539Z"/>
    <path transform="translate(148.5,0.0) scale(0.009766,-0.009766)" d="M547 0H522Q339 0 243.5 94.0Q148 188 148 405V1366H317V404Q317 277 370.0 228.5Q423 180 522 180H547Z"/>
    <path transform="translate(153.7,0.0) scale(0.009766,-0.009766)" d="M303 144Q241 74 171.5 37.0Q102 0 22 0H-20V180H17Q79 180 123.0 215.5Q167 251 199.0 304.0Q231 357 255 411Q383 695 596 695Q748 695 832.0 600.5Q916 506 944 370Q984 180 1104 180H1131V0H1103Q1043 0 992.5 24.5Q942 49 905 104Q862 37 801.5 7.5Q741 -22 652 -22Q555 -22 472.0 20.0Q389 62 303 144ZM391 300Q457 224 520.0 188.5Q583 153 644 153Q783 153 783 292Q783 390 734.5 452.5Q686 515 601 515Q531 515 479.5 448.0Q428 381 391 300Z"/>
    <path transform="translate(164.5,0.0) scale(0.009766,-0.009766)" d="M1153 180Q1292 180 1292 402Q1292 507 1248 666L1412 707Q1436 631 1450.0 559.5Q1464 488 1464 417Q1464 303 1434.0 208.5Q1404 114 1336.0 57.5Q1268 1 1154 0Q982 0 911 143Q807 0 636 0Q437 0 372 143Q289 0 49 0H-20V180H51Q173 180 233.0 225.5Q293 271 293 389Q293 415 290.5 459.0Q288 503 283 567L448 587L464 361Q470 282 513.0 231.0Q556 180 638 180Q737 180 780.0 234.0Q823 288 823 389Q823 413 820.5 457.5Q818 502 813 567L978 587L994 361Q999 285 1037.0 232.5Q1075 180 1153 180Z"/>
    <path transform="translate(179.8,0.0) scale(0.009766,-0.009766)" d="M119 1439Q71 1439 35.5 1404.0Q0 1369 -59 1304L-148 1385Q-87 1453 -23.5 1510.0Q40 1567 95 1567Q137 1567 178.5 1545.5Q220 1524 261.0 1502.5Q302 1481 344 1481Q371 1481 390.0 1485.5Q409 1490 435.0 1508.0Q461 1526 508 1565L585 1464Q512 1409 460.5 1381.5Q409 1354 366 1354Q326 1354 283.5 1375.5Q241 1397 199.5 1418.0Q158 1439 119 1439ZM148 1228H317V1H148Z"/>
    <path transform="translate(189.6,0.0) scale(0.009766,-0.009766)" d="M503 573Q428 505 384.5 438.5Q341 372 341 277Q417 277 446.5 242.5Q476 208 476 143Q476 78 441.5 39.5Q407 1 341 1Q257 1 220.0 48.5Q183 96 183 175Q183 320 251.5 433.5Q320 547 429 632Z"/>
    <path transform="translate(196.1,0.0) scale(0.009766,-0.009766)" d="M98 412Q98 559 223.0 672.0Q348 785 605 864L598 909L757 942L839 353Q850 271 897.5 225.5Q945 180 1027 180H1058V0H1023Q884 0 805.5 61.5Q727 123 701 237Q579 132 431 132Q340 132 264.0 161.5Q188 191 143.0 253.0Q98 315 98 412ZM631 703Q454 638 363.0 570.5Q272 503 272 424Q272 300 425 300Q481 300 535.0 322.0Q589 344 625.0 384.5Q661 425 661 482Q661 512 657 539Z"/>
    <path transform="translate(206.2,0.0) scale(0.009766,-0.009766)" d="M303 144Q241 74 171.5 37.0Q102 0 22 0H-20V180H17Q79 180 123.0 215.5Q167 251 199.0 304.0Q231 357 255 411Q383 695 596 695Q748 695 832.0 600.5Q916 506 944 370Q984 180 1104 180H1131V0H1103Q1043 0 992.5 24.5Q942 49 905 104Q862 37 801.5 7.5Q741 -22 652 -22Q555 -22 472.0 20.0Q389 62 303 144ZM391 300Q457 224 520.0 188.5Q583 153 644 153Q783 153 783 292Q783 390 734.5 452.5Q686 515 601 515Q531 515 479.5 448.0Q428 381 391 300Z"/>
    <path transform="translate(217.1,0.0) scale(0.009766,-0.009766)" d="M348 143Q299 73 235.0 36.5Q171 0 43 0H-20V180H45Q164 180 217.0 232.5Q270 285 271 389V1366H440V389Q440 285 484.5 232.5Q529 180 638 180H670V0H640Q531 0 465.0 36.5Q399 73 348 143Z"/>
    <path transform="translate(223.4,0.0) scale(0.009766,-0.009766)" d="M727 356Q726 177 593.5 88.5Q461 0 166 0H-20V180H165Q371 180 461.0 221.5Q551 263 551 359Q551 413 510.0 472.5Q469 532 402.0 596.5Q335 661 254.0 728.5Q173 796 93 865Q42 908 42 983Q42 1027 66.5 1069.5Q91 1112 146 1133L890 1410V1234L215 984Q291 923 379.5 852.5Q468 782 547.0 703.0Q626 624 676.5 537.0Q727 450 727 356Z"/>
    <path transform="translate(232.0,0.0) scale(0.009766,-0.009766)" d="M98 207Q226 181 317 181Q689 181 689 364Q689 554 275 815L373 963Q865 669 865 367Q865 2 330 2Q267 2 209.0 8.5Q151 15 98 26Z"/>
    <path transform="translate(246.7,0.0) scale(0.009766,-0.009766)" d="M503 573Q428 505 384.5 438.5Q341 372 341 277Q417 277 446.5 242.5Q476 208 476 143Q476 78 441.5 39.5Q407 1 341 1Q257 1 220.0 48.5Q183 96 183 175Q183 320 251.5 433.5Q320 547 429 632Z"/>
    <path transform="translate(253.2,0.0) scale(0.009766,-0.009766)" d="M780 695Q931 695 1013.5 604.0Q1096 513 1125 370Q1166 180 1288 180H1316V0H1288Q1226 0 1173.5 24.5Q1121 49 1084 104Q1045 37 988.0 7.0Q931 -23 843 -23Q771 -23 677 19Q643 34 594.0 62.5Q545 91 497.0 114.5Q449 138 419 138Q341 138 307.5 33.5Q274 -71 274 -295Q274 -393 277.5 -484.0Q281 -575 288 -655H112Q107 -567 104.0 -484.5Q101 -402 101 -323Q101 -149 122.5 -6.5Q144 136 209.0 226.0Q274 316 403 331Q477 517 566.5 605.5Q656 694 780 695ZM842 155Q964 157 964 295Q964 387 915.0 451.5Q866 516 780 516Q708 516 655.5 445.0Q603 374 564 281Q654 219 722.5 187.0Q791 155 842 155Z"/>
    <path transform="translate(265.9,0.0) scale(0.009766,-0.009766)" d="M348 143Q299 73 235.0 36.5Q171 0 43 0H-20V180H45Q164 180 217.0 232.5Q270 285 271 389V1366H440V389Q440 285 484.5 232.5Q529 180 638 180H670V0H640Q531 0 465.0 36.5Q399 73 348 143Z"/>
    <path transform="translate(272.2,0.0) scale(0.009766,-0.009766)" d="M787 0H763Q659 0 595.0 36.5Q531 73 493 143Q442 72 348.5 36.0Q255 0 129 0H-20V180H131Q280 180 341.0 223.5Q402 267 403 387Q403 436 400.5 489.0Q398 542 395 589L559 608L575 361Q587 180 765 180H787ZM267 -303 407 -163 548 -303 407 -445ZM-65 -303 75 -163 216 -303 75 -445Z"/>
    <path transform="translate(279.7,0.0) scale(0.009766,-0.009766)" d="M289 1334 435 1479 581 1334 435 1188ZM667 391Q572 362 466 362Q139 362 139 631Q139 727 173.5 822.0Q208 917 280.5 979.5Q353 1042 466 1042Q560 1042 627.5 994.0Q695 946 737.5 863.5Q780 781 800.0 677.0Q820 573 820 462Q820 271 764.0 171.5Q708 72 586.0 36.0Q464 0 265 0H-20V180H276Q464 180 565.0 220.5Q666 261 667 391ZM651 559Q643 627 622.5 698.0Q602 769 563.0 817.5Q524 866 459 866Q402 866 367.0 827.0Q332 788 316.0 735.0Q300 682 300 638Q300 574 345.5 553.0Q391 532 479 532Q522 532 565.0 539.0Q608 546 651 559Z"/>
    <path transform="translate(294.0,0.0) scale(0.009766,-0.009766)" d="M503 573Q428 505 384.5 438.5Q341 372 341 277Q417 277 446.5 242.5Q476 208 476 143Q476 78 441.5 39.5Q407 1 341 1Q257 1 220.0 48.5Q183 96 183 175Q183 320 251.5 433.5Q320 547 429 632Z"/>
    <path transform="translate(300.5,0.0) scale(0.009766,-0.009766)" d="M361 475Q269 250 269 72Q269 -132 378.0 -227.0Q487 -322 714 -323Q802 -323 890.5 -306.5Q979 -290 1053.0 -256.5Q1127 -223 1172.0 -172.0Q1217 -121 1217 -52Q1217 -15 1201.0 0.5Q1185 16 1138 16H974Q728 16 728 263Q728 384 783.0 489.5Q838 595 939.5 661.0Q1041 727 1182 727Q1211 727 1264.5 722.5Q1318 718 1372 695L1340 530Q1297 544 1254.0 547.5Q1211 551 1182 551Q1100 551 1045.0 521.5Q990 492 957.5 448.0Q925 404 911.0 357.5Q897 311 897 276Q897 232 913.5 212.0Q930 192 984 192H1164Q1283 191 1330.5 123.0Q1378 55 1378 -48Q1378 -186 1291.5 -287.5Q1205 -389 1056.0 -444.0Q907 -499 719 -499Q424 -499 261.0 -354.5Q98 -210 98 79Q98 186 125.0 298.5Q152 411 206 538Z"/>
    <path transform="translate(314.9,0.0) scale(0.009766,-0.009766)" d="M264 872 410 1017 556 872 410 726ZM530 527Q574 426 593.0 320.5Q612 215 612 113Q612 -33 555.5 -166.5Q499 -300 378.0 -399.0Q257 -498 63 -542L-10 -394Q233 -335 339.5 -202.0Q446 -69 446 97Q446 184 427.5 278.0Q409 372 368 469Z"/>
    <path transform="translate(321.9,0.0) scale(0.009766,-0.009766)" d="M547 0H522Q339 0 243.5 94.0Q148 188 148 405V1366H317V404Q317 277 370.0 228.5Q423 180 522 180H547Z"/>
    <path transform="translate(327.0,0.0) scale(0.009766,-0.009766)" d="M494 416Q494 215 395.0 107.5Q296 0 99 0H-20V180H99Q215 180 269.0 233.5Q323 287 323 413Q323 472 313.0 549.5Q303 627 286 698L450 738Q473 660 483.5 574.5Q494 489 494 416ZM59 -303 205 -158 351 -303 205 -449Z"/>
  </g>
  <g class="star" filter="url(#fglow)">
    <path d="M90 188 l3.5 8.5 8.5 3.5 -8.5 3.5 -3.5 8.5 -3.5 -8.5 -8.5 -3.5 8.5 -3.5 Z" fill="#ffd166"/>
  </g>
  <path d="M64 236 h180 l7 -6 l7 6 h24 l4 5 l6 -30 l6 38 l4 -13 h180" stroke="#123a52" stroke-width="1.8" fill="none"/>
  <path d="M64 236 h180 l7 -6 l7 6 h24 l4 5 l6 -30 l6 38 l4 -13 h180" stroke="#00e5a0" stroke-width="2" fill="none" filter="url(#fglow)" stroke-dasharray="90 700" stroke-linecap="round">
    <animate attributeName="stroke-dashoffset" values="790;0" dur="3.2s" repeatCount="indefinite"/>
  </path>
</svg>