<svg width="900" height="400" viewBox="0 0 900 400" fill="none" xmlns="http://www.w3.org/2000/svg">
  <defs>
    <clipPath id="waveClip"><rect x="185" y="-40" width="440" height="80"/></clipPath>
    <filter id="vglow" x="-50%" y="-50%" width="200%" height="200%">
      <feGaussianBlur stdDeviation="2.2" result="b"/>
      <feMerge><feMergeNode in="b"/><feMergeNode in="SourceGraphic"/></feMerge>
    </filter>
    <pattern id="vgrid" width="22" height="22" patternUnits="userSpaceOnUse">
      <path d="M22 0H0V22" stroke="#0b1f30" stroke-width="1" fill="none"/>
    </pattern>
    <path id="waveEcg" d="M0 0 h38 l8 -6 l8 6 h20 l4 6 l6 -42 l6 52 l4 -16 h24 l9 -9 l9 9 h84
      h38 l8 -6 l8 6 h20 l4 6 l6 -42 l6 52 l4 -16 h24 l9 -9 l9 9 h84
      h38 l8 -6 l8 6 h20 l4 6 l6 -42 l6 52 l4 -16 h24 l9 -9 l9 9 h84
      h38 l8 -6 l8 6 h20 l4 6 l6 -42 l6 52 l4 -16 h24 l9 -9 l9 9 h84
      h38 l8 -6 l8 6 h20 l4 6 l6 -42 l6 52 l4 -16 h24 l9 -9 l9 9 h84" />
    <path id="waveSquare" d="M0 0 h27 v-16 h28 v16 h27 v-16 h28 v16 h27 v-16 h28 v16 h27 v-16 h28 v16
      h27 v-16 h28 v16 h27 v-16 h28 v16 h27 v-16 h28 v16 h27 v-16 h28 v16
      h27 v-16 h28 v16 h27 v-16 h28 v16 h27 v-16 h28 v16 h27 v-16 h28 v16
      h27 v-16 h28 v16 h27 v-16 h28 v16 h27 v-16 h28 v16 h27 v-16 h28 v16
      h27 v-16 h28 v16 h27 v-16 h28 v16 h27 v-16 h28 v16 h27 v-16 h28 v16" />
    <path id="waveSine" d="M0 0 Q27.5 -20 55 0 T110 0 T165 0 T220 0 T275 0 T330 0 T385 0 T440 0 T495 0 T550 0 T605 0 T660 0 T715 0 T770 0 T825 0 T880 0 T935 0 T990 0 T1045 0 T1100 0" />
    <path id="waveArt" d="M0 0 C15 -22 35 14 55 0 S95 -18 110 0 S150 16 165 0 S205 -24 220 0
      C235 -22 255 14 275 0 S315 -18 330 0 S370 16 385 0 S425 -24 440 0
      C455 -22 475 14 495 0 S535 -18 550 0 S590 16 605 0 S645 -24 660 0
      C675 -22 695 14 715 0 S755 -18 770 0 S810 16 825 0 S865 -24 880 0
      C895 -22 915 14 935 0 S975 -18 990 0 S1030 16 1045 0 S1085 -24 1100 0" />
  </defs>
  <rect width="900" height="400" rx="18" fill="#040b14"/>
  <rect width="900" height="400" rx="18" fill="url(#vgrid)" opacity="0.5"/>
  <rect x="1" y="1" width="898" height="398" rx="17" stroke="#123049" stroke-width="2" fill="none"/>
  <path d="M1 18 A17 17 0 0 1 18 1 H882 A17 17 0 0 1 899 18 V48 H1 Z" fill="#081a2c"/>
  <line x1="1" y1="48" x2="899" y2="48" stroke="#123049" stroke-width="1.5"/>
  <circle cx="30" cy="25" r="5" fill="#00e5a0">
    <animate attributeName="opacity" values="1;0.2;1" dur="1.6s" repeatCount="indefinite"/>
  </circle>
  <text x="44" y="30" font-family="'Courier New',monospace" font-size="15" font-weight="bold" fill="#c9e4f5">LIVE — MULTIPASSION MONITOR</text>
  <text x="864" y="30" text-anchor="end" font-family="'Courier New',monospace" font-size="13" font-weight="bold" fill="#00e5a0">ID: DOCTORGUIDANCE</text>
  <g transform="translate(0,105)">
    <text x="36" y="-14" font-family="'Courier New',monospace" font-size="12" fill="#3d5a73">CH1</text>
    <text x="36" y="6" font-family="'Segoe UI',Ubuntu,Arial,sans-serif" font-size="17" font-weight="700" letter-spacing="2" fill="#00e5a0">MEDICINE</text>
    <g clip-path="url(#waveClip)">
      <g stroke="#00e5a0" stroke-width="2.2" fill="none" filter="url(#vglow)" stroke-linecap="round">
        <use href="#waveEcg">
          <animateTransform attributeName="transform" type="translate" from="0 0" to="-440 0" dur="4s" repeatCount="indefinite"/>
        </use>
      </g>
    </g>
    <text x="655" y="8" font-family="'Courier New',monospace" font-size="26" font-weight="bold" fill="#00e5a0">72<tspan font-size="14"> BPM</tspan><animate attributeName="opacity" values="1;1;0.5;1" keyTimes="0;0.85;0.93;1" dur="0.85s" repeatCount="indefinite"/></text>
    <text x="655" y="26" font-family="'Courier New',monospace" font-size="11" fill="#5b7a93">SINUS RHYTHM · MED STUDENT</text>
  </g>
  <g transform="translate(0,180)">
    <text x="36" y="-14" font-family="'Courier New',monospace" font-size="12" fill="#3d5a73">CH2</text>
    <text x="36" y="6" font-family="'Segoe UI',Ubuntu,Arial,sans-serif" font-size="17" font-weight="700" letter-spacing="2" fill="#00b4d8">CODE</text>
    <g clip-path="url(#waveClip)">
      <g stroke="#00b4d8" stroke-width="2.2" fill="none" filter="url(#vglow)" stroke-linecap="round">
        <use href="#waveSquare">
          <animateTransform attributeName="transform" type="translate" from="0 0" to="-440 0" dur="6s" repeatCount="indefinite"/>
        </use>
      </g>
    </g>
    <text x="655" y="8" font-family="'Courier New',monospace" font-size="26" font-weight="bold" fill="#00b4d8">∞<tspan font-size="14"> LOC</tspan></text>
    <text x="655" y="26" font-family="'Courier New',monospace" font-size="11" fill="#5b7a93">BOTS · APIS · SHIPPING DAILY</text>
  </g>
  <g transform="translate(0,255)">
    <text x="36" y="-14" font-family="'Courier New',monospace" font-size="12" fill="#3d5a73">CH3</text>
    <text x="36" y="6" font-family="'Segoe UI',Ubuntu,Arial,sans-serif" font-size="17" font-weight="700" letter-spacing="2" fill="#b388ff">AI</text>
    <g clip-path="url(#waveClip)">
      <g stroke="#b388ff" stroke-width="2.2" fill="none" filter="url(#vglow)" stroke-linecap="round">
        <use href="#waveSine">
          <animateTransform attributeName="transform" type="translate" from="0 0" to="-440 0" dur="7s" repeatCount="indefinite"/>
        </use>
      </g>
    </g>
    <text x="655" y="8" font-family="'Courier New',monospace" font-size="26" font-weight="bold" fill="#b388ff">99.9<tspan font-size="14"> %</tspan></text>
    <text x="655" y="26" font-family="'Courier New',monospace" font-size="11" fill="#5b7a93">CURIOSITY SATURATION</text>
  </g>
  <g transform="translate(0,330)">
    <text x="36" y="-14" font-family="'Courier New',monospace" font-size="12" fill="#3d5a73">CH4</text>
    <text x="36" y="6" font-family="'Segoe UI',Ubuntu,Arial,sans-serif" font-size="17" font-weight="700" letter-spacing="2" fill="#ff5d8f">DESIGN</text>
    <g clip-path="url(#waveClip)">
      <g stroke="#ff5d8f" stroke-width="2.2" fill="none" filter="url(#vglow)" stroke-linecap="round">
        <use href="#waveArt">
          <animateTransform attributeName="transform" type="translate" from="0 0" to="-440 0" dur="8s" repeatCount="indefinite"/>
        </use>
      </g>
    </g>
    <text x="655" y="8" font-family="'Courier New',monospace" font-size="26" font-weight="bold" fill="#ff5d8f">20/20<tspan font-size="14"> VISION</tspan></text>
    <text x="655" y="26" font-family="'Courier New',monospace" font-size="11" fill="#5b7a93">AESTHETICS · PS · ID · SKETCHUP</text>
  </g>
  <text x="450" y="384" text-anchor="middle" font-family="'Courier New',monospace" font-size="11" fill="#2c465c">ALL SYSTEMS NOMINAL — PASSION LEVELS EXCEED MEASURABLE RANGE</text>
</svg>
